ISO-10303-21;
HEADER;
/* Generated by software containing ST-Developer
 * from STEP Tools, Inc. (www.steptools.com) 
 */

FILE_DESCRIPTION(
/* description */ ('STEP AP203'),
/* implementation_level */ '2;1');

FILE_NAME(
/* name */ '',
/* time_stamp */ '2026-01-31T13:26:44+08:00',
/* author */ (''),
/* organization */ (''),
/* preprocessor_version */ 'ST-DEVELOPER v20.1',
/* originating_system */ 'Autodesk Translation Framework v14.24.0.0',
/* authorisation */ '');

FILE_SCHEMA (('AUTOMOTIVE_DESIGN { 1 0 10303 214 3 1 1 }'));
ENDSEC;

DATA;
#10=MECHANICAL_DESIGN_GEOMETRIC_PRESENTATION_REPRESENTATION('',(#13),#1800);
#11=SHAPE_REPRESENTATION_RELATIONSHIP('SRR','None',#1807,#12);
#12=ADVANCED_BREP_SHAPE_REPRESENTATION('',(#14),#1799);
#13=STYLED_ITEM('',(#1816),#14);
#14=MANIFOLD_SOLID_BREP('\X2\5B9E4F53\X0\1',#1060);
#15=TOROIDAL_SURFACE('',#1145,2.6,0.5);
#16=TOROIDAL_SURFACE('',#1152,2.6,0.5);
#17=TOROIDAL_SURFACE('',#1156,1.5,1.);
#18=TOROIDAL_SURFACE('',#1163,1.5,1.);
#19=TOROIDAL_SURFACE('',#1165,1.5,1.);
#20=TOROIDAL_SURFACE('',#1171,1.5,1.);
#21=FACE_BOUND('',#138,.T.);
#22=FACE_BOUND('',#147,.T.);
#23=FACE_BOUND('',#149,.T.);
#24=FACE_BOUND('',#151,.T.);
#25=FACE_BOUND('',#153,.T.);
#26=FACE_BOUND('',#161,.T.);
#27=FACE_BOUND('',#163,.T.);
#28=FACE_BOUND('',#181,.T.);
#29=PLANE('',#1089);
#30=PLANE('',#1092);
#31=PLANE('',#1094);
#32=PLANE('',#1096);
#33=PLANE('',#1097);
#34=PLANE('',#1099);
#35=PLANE('',#1101);
#36=PLANE('',#1104);
#37=PLANE('',#1105);
#38=PLANE('',#1106);
#39=PLANE('',#1107);
#40=PLANE('',#1108);
#41=PLANE('',#1113);
#42=PLANE('',#1114);
#43=PLANE('',#1115);
#44=PLANE('',#1116);
#45=PLANE('',#1121);
#46=PLANE('',#1122);
#47=PLANE('',#1123);
#48=PLANE('',#1125);
#49=PLANE('',#1126);
#50=PLANE('',#1128);
#51=PLANE('',#1131);
#52=PLANE('',#1135);
#53=PLANE('',#1136);
#54=PLANE('',#1138);
#55=PLANE('',#1172);
#56=PLANE('',#1173);
#57=PLANE('',#1174);
#58=PLANE('',#1175);
#59=PLANE('',#1176);
#60=PLANE('',#1177);
#61=PLANE('',#1178);
#62=FACE_OUTER_BOUND('',#121,.T.);
#63=FACE_OUTER_BOUND('',#122,.T.);
#64=FACE_OUTER_BOUND('',#123,.T.);
#65=FACE_OUTER_BOUND('',#124,.T.);
#66=FACE_OUTER_BOUND('',#125,.T.);
#67=FACE_OUTER_BOUND('',#126,.T.);
#68=FACE_OUTER_BOUND('',#127,.T.);
#69=FACE_OUTER_BOUND('',#128,.T.);
#70=FACE_OUTER_BOUND('',#129,.T.);
#71=FACE_OUTER_BOUND('',#130,.T.);
#72=FACE_OUTER_BOUND('',#131,.T.);
#73=FACE_OUTER_BOUND('',#132,.T.);
#74=FACE_OUTER_BOUND('',#133,.T.);
#75=FACE_OUTER_BOUND('',#134,.T.);
#76=FACE_OUTER_BOUND('',#135,.T.);
#77=FACE_OUTER_BOUND('',#136,.T.);
#78=FACE_OUTER_BOUND('',#137,.T.);
#79=FACE_OUTER_BOUND('',#139,.T.);
#80=FACE_OUTER_BOUND('',#140,.T.);
#81=FACE_OUTER_BOUND('',#141,.T.);
#82=FACE_OUTER_BOUND('',#142,.T.);
#83=FACE_OUTER_BOUND('',#143,.T.);
#84=FACE_OUTER_BOUND('',#144,.T.);
#85=FACE_OUTER_BOUND('',#145,.T.);
#86=FACE_OUTER_BOUND('',#146,.T.);
#87=FACE_OUTER_BOUND('',#148,.T.);
#88=FACE_OUTER_BOUND('',#150,.T.);
#89=FACE_OUTER_BOUND('',#152,.T.);
#90=FACE_OUTER_BOUND('',#154,.T.);
#91=FACE_OUTER_BOUND('',#155,.T.);
#92=FACE_OUTER_BOUND('',#156,.T.);
#93=FACE_OUTER_BOUND('',#157,.T.);
#94=FACE_OUTER_BOUND('',#158,.T.);
#95=FACE_OUTER_BOUND('',#159,.T.);
#96=FACE_OUTER_BOUND('',#160,.T.);
#97=FACE_OUTER_BOUND('',#162,.T.);
#98=FACE_OUTER_BOUND('',#164,.T.);
#99=FACE_OUTER_BOUND('',#165,.T.);
#100=FACE_OUTER_BOUND('',#166,.T.);
#101=FACE_OUTER_BOUND('',#167,.T.);
#102=FACE_OUTER_BOUND('',#168,.T.);
#103=FACE_OUTER_BOUND('',#169,.T.);
#104=FACE_OUTER_BOUND('',#170,.T.);
#105=FACE_OUTER_BOUND('',#171,.T.);
#106=FACE_OUTER_BOUND('',#172,.T.);
#107=FACE_OUTER_BOUND('',#173,.T.);
#108=FACE_OUTER_BOUND('',#174,.T.);
#109=FACE_OUTER_BOUND('',#175,.T.);
#110=FACE_OUTER_BOUND('',#176,.T.);
#111=FACE_OUTER_BOUND('',#177,.T.);
#112=FACE_OUTER_BOUND('',#178,.T.);
#113=FACE_OUTER_BOUND('',#179,.T.);
#114=FACE_OUTER_BOUND('',#180,.T.);
#115=FACE_OUTER_BOUND('',#182,.T.);
#116=FACE_OUTER_BOUND('',#183,.T.);
#117=FACE_OUTER_BOUND('',#184,.T.);
#118=FACE_OUTER_BOUND('',#185,.T.);
#119=FACE_OUTER_BOUND('',#186,.T.);
#120=FACE_OUTER_BOUND('',#187,.T.);
#121=EDGE_LOOP('',(#683,#684,#685,#686));
#122=EDGE_LOOP('',(#687,#688,#689,#690));
#123=EDGE_LOOP('',(#691,#692,#693,#694));
#124=EDGE_LOOP('',(#695,#696,#697,#698));
#125=EDGE_LOOP('',(#699,#700,#701,#702));
#126=EDGE_LOOP('',(#703,#704,#705,#706,#707,#708,#709,#710,#711,#712,#713,
#714,#715,#716,#717,#718,#719,#720,#721,#722,#723,#724));
#127=EDGE_LOOP('',(#725,#726,#727,#728,#729));
#128=EDGE_LOOP('',(#730,#731,#732,#733,#734));
#129=EDGE_LOOP('',(#735,#736,#737,#738));
#130=EDGE_LOOP('',(#739,#740,#741,#742,#743));
#131=EDGE_LOOP('',(#744,#745,#746,#747,#748));
#132=EDGE_LOOP('',(#749,#750,#751,#752,#753,#754,#755,#756,#757,#758));
#133=EDGE_LOOP('',(#759,#760,#761,#762,#763,#764,#765,#766));
#134=EDGE_LOOP('',(#767,#768,#769,#770));
#135=EDGE_LOOP('',(#771,#772,#773,#774));
#136=EDGE_LOOP('',(#775,#776,#777,#778));
#137=EDGE_LOOP('',(#779,#780,#781,#782));
#138=EDGE_LOOP('',(#783,#784,#785,#786,#787,#788,#789,#790));
#139=EDGE_LOOP('',(#791,#792,#793,#794));
#140=EDGE_LOOP('',(#795,#796,#797,#798,#799,#800,#801,#802));
#141=EDGE_LOOP('',(#803,#804,#805,#806));
#142=EDGE_LOOP('',(#807,#808,#809,#810,#811,#812));
#143=EDGE_LOOP('',(#813,#814,#815,#816));
#144=EDGE_LOOP('',(#817,#818,#819,#820));
#145=EDGE_LOOP('',(#821,#822,#823,#824));
#146=EDGE_LOOP('',(#825,#826,#827,#828));
#147=EDGE_LOOP('',(#829));
#148=EDGE_LOOP('',(#830,#831,#832,#833,#834));
#149=EDGE_LOOP('',(#835));
#150=EDGE_LOOP('',(#836,#837,#838,#839));
#151=EDGE_LOOP('',(#840));
#152=EDGE_LOOP('',(#841,#842,#843,#844,#845));
#153=EDGE_LOOP('',(#846));
#154=EDGE_LOOP('',(#847,#848,#849,#850));
#155=EDGE_LOOP('',(#851,#852,#853,#854));
#156=EDGE_LOOP('',(#855,#856,#857,#858));
#157=EDGE_LOOP('',(#859,#860,#861,#862));
#158=EDGE_LOOP('',(#863,#864,#865,#866));
#159=EDGE_LOOP('',(#867,#868,#869,#870));
#160=EDGE_LOOP('',(#871,#872,#873,#874));
#161=EDGE_LOOP('',(#875,#876,#877,#878,#879,#880));
#162=EDGE_LOOP('',(#881,#882,#883,#884));
#163=EDGE_LOOP('',(#885));
#164=EDGE_LOOP('',(#886,#887,#888,#889));
#165=EDGE_LOOP('',(#890,#891,#892,#893));
#166=EDGE_LOOP('',(#894,#895,#896,#897));
#167=EDGE_LOOP('',(#898,#899,#900,#901));
#168=EDGE_LOOP('',(#902,#903,#904,#905));
#169=EDGE_LOOP('',(#906,#907,#908,#909));
#170=EDGE_LOOP('',(#910,#911,#912,#913));
#171=EDGE_LOOP('',(#914,#915,#916,#917));
#172=EDGE_LOOP('',(#918,#919,#920,#921));
#173=EDGE_LOOP('',(#922,#923,#924,#925));
#174=EDGE_LOOP('',(#926,#927,#928,#929));
#175=EDGE_LOOP('',(#930,#931,#932,#933));
#176=EDGE_LOOP('',(#934,#935,#936,#937));
#177=EDGE_LOOP('',(#938,#939,#940,#941));
#178=EDGE_LOOP('',(#942,#943,#944,#945));
#179=EDGE_LOOP('',(#946,#947,#948,#949));
#180=EDGE_LOOP('',(#950,#951,#952,#953,#954,#955));
#181=EDGE_LOOP('',(#956));
#182=EDGE_LOOP('',(#957,#958,#959,#960));
#183=EDGE_LOOP('',(#961,#962,#963,#964));
#184=EDGE_LOOP('',(#965,#966,#967,#968));
#185=EDGE_LOOP('',(#969,#970,#971,#972));
#186=EDGE_LOOP('',(#973,#974,#975,#976));
#187=EDGE_LOOP('',(#977,#978,#979,#980));
#188=LINE('',#1499,#291);
#189=LINE('',#1506,#292);
#190=LINE('',#1509,#293);
#191=LINE('',#1514,#294);
#192=LINE('',#1521,#295);
#193=LINE('',#1524,#296);
#194=LINE('',#1529,#297);
#195=LINE('',#1533,#298);
#196=LINE('',#1535,#299);
#197=LINE('',#1537,#300);
#198=LINE('',#1539,#301);
#199=LINE('',#1541,#302);
#200=LINE('',#1545,#303);
#201=LINE('',#1547,#304);
#202=LINE('',#1549,#305);
#203=LINE('',#1551,#306);
#204=LINE('',#1553,#307);
#205=LINE('',#1557,#308);
#206=LINE('',#1559,#309);
#207=LINE('',#1561,#310);
#208=LINE('',#1563,#311);
#209=LINE('',#1564,#312);
#210=LINE('',#1566,#313);
#211=LINE('',#1568,#314);
#212=LINE('',#1569,#315);
#213=LINE('',#1573,#316);
#214=LINE('',#1577,#317);
#215=LINE('',#1579,#318);
#216=LINE('',#1580,#319);
#217=LINE('',#1584,#320);
#218=LINE('',#1588,#321);
#219=LINE('',#1590,#322);
#220=LINE('',#1591,#323);
#221=LINE('',#1594,#324);
#222=LINE('',#1596,#325);
#223=LINE('',#1597,#326);
#224=LINE('',#1600,#327);
#225=LINE('',#1601,#328);
#226=LINE('',#1605,#329);
#227=LINE('',#1606,#330);
#228=LINE('',#1611,#331);
#229=LINE('',#1614,#332);
#230=LINE('',#1616,#333);
#231=LINE('',#1617,#334);
#232=LINE('',#1620,#335);
#233=LINE('',#1621,#336);
#234=LINE('',#1622,#337);
#235=LINE('',#1623,#338);
#236=LINE('',#1627,#339);
#237=LINE('',#1628,#340);
#238=LINE('',#1629,#341);
#239=LINE('',#1632,#342);
#240=LINE('',#1633,#343);
#241=LINE('',#1636,#344);
#242=LINE('',#1637,#345);
#243=LINE('',#1639,#346);
#244=LINE('',#1642,#347);
#245=LINE('',#1646,#348);
#246=LINE('',#1650,#349);
#247=LINE('',#1654,#350);
#248=LINE('',#1658,#351);
#249=LINE('',#1659,#352);
#250=LINE('',#1662,#353);
#251=LINE('',#1664,#354);
#252=LINE('',#1665,#355);
#253=LINE('',#1668,#356);
#254=LINE('',#1669,#357);
#255=LINE('',#1676,#358);
#256=LINE('',#1677,#359);
#257=LINE('',#1682,#360);
#258=LINE('',#1684,#361);
#259=LINE('',#1692,#362);
#260=LINE('',#1694,#363);
#261=LINE('',#1696,#364);
#262=LINE('',#1697,#365);
#263=LINE('',#1702,#366);
#264=LINE('',#1706,#367);
#265=LINE('',#1708,#368);
#266=LINE('',#1709,#369);
#267=LINE('',#1713,#370);
#268=LINE('',#1715,#371);
#269=LINE('',#1717,#372);
#270=LINE('',#1721,#373);
#271=LINE('',#1723,#374);
#272=LINE('',#1725,#375);
#273=LINE('',#1727,#376);
#274=LINE('',#1729,#377);
#275=LINE('',#1730,#378);
#276=LINE('',#1734,#379);
#277=LINE('',#1736,#380);
#278=LINE('',#1738,#381);
#279=LINE('',#1775,#382);
#280=LINE('',#1777,#383);
#281=LINE('',#1779,#384);
#282=LINE('',#1781,#385);
#283=LINE('',#1783,#386);
#284=LINE('',#1784,#387);
#285=LINE('',#1786,#388);
#286=LINE('',#1787,#389);
#287=LINE('',#1789,#390);
#288=LINE('',#1791,#391);
#289=LINE('',#1793,#392);
#290=LINE('',#1795,#393);
#291=VECTOR('',#1185,1.);
#292=VECTOR('',#1192,1000.);
#293=VECTOR('',#1195,1000.);
#294=VECTOR('',#1200,1.);
#295=VECTOR('',#1207,1000.);
#296=VECTOR('',#1210,1000.);
#297=VECTOR('',#1215,1.);
#298=VECTOR('',#1220,10.);
#299=VECTOR('',#1221,10.);
#300=VECTOR('',#1222,1000.);
#301=VECTOR('',#1223,1000.);
#302=VECTOR('',#1224,1000.);
#303=VECTOR('',#1227,1000.);
#304=VECTOR('',#1228,1000.);
#305=VECTOR('',#1229,1000.);
#306=VECTOR('',#1230,1000.);
#307=VECTOR('',#1231,1000.);
#308=VECTOR('',#1234,1000.);
#309=VECTOR('',#1235,1000.);
#310=VECTOR('',#1236,1000.);
#311=VECTOR('',#1237,10.);
#312=VECTOR('',#1238,10.);
#313=VECTOR('',#1239,1000.);
#314=VECTOR('',#1240,1000.);
#315=VECTOR('',#1241,1000.);
#316=VECTOR('',#1244,1000.);
#317=VECTOR('',#1247,1000.);
#318=VECTOR('',#1248,10.);
#319=VECTOR('',#1249,1000.);
#320=VECTOR('',#1252,1000.);
#321=VECTOR('',#1255,1000.);
#322=VECTOR('',#1256,1000.);
#323=VECTOR('',#1257,10.);
#324=VECTOR('',#1260,1000.);
#325=VECTOR('',#1261,1000.);
#326=VECTOR('',#1262,1000.);
#327=VECTOR('',#1265,1000.);
#328=VECTOR('',#1266,1000.);
#329=VECTOR('',#1271,1000.);
#330=VECTOR('',#1272,1000.);
#331=VECTOR('',#1277,1000.);
#332=VECTOR('',#1280,1000.);
#333=VECTOR('',#1281,1000.);
#334=VECTOR('',#1282,1000.);
#335=VECTOR('',#1287,1000.);
#336=VECTOR('',#1288,1000.);
#337=VECTOR('',#1289,1000.);
#338=VECTOR('',#1290,1000.);
#339=VECTOR('',#1293,1000.);
#340=VECTOR('',#1294,1000.);
#341=VECTOR('',#1295,1000.);
#342=VECTOR('',#1298,1000.);
#343=VECTOR('',#1299,1000.);
#344=VECTOR('',#1302,1000.);
#345=VECTOR('',#1303,1000.);
#346=VECTOR('',#1306,1000.);
#347=VECTOR('',#1307,1000.);
#348=VECTOR('',#1310,1000.);
#349=VECTOR('',#1313,1000.);
#350=VECTOR('',#1316,1000.);
#351=VECTOR('',#1321,1000.);
#352=VECTOR('',#1322,1000.);
#353=VECTOR('',#1325,1000.);
#354=VECTOR('',#1326,1000.);
#355=VECTOR('',#1327,1000.);
#356=VECTOR('',#1330,1000.);
#357=VECTOR('',#1331,1000.);
#358=VECTOR('',#1344,1000.);
#359=VECTOR('',#1345,1000.);
#360=VECTOR('',#1354,1000.);
#361=VECTOR('',#1357,1000.);
#362=VECTOR('',#1368,1000.);
#363=VECTOR('',#1369,1000.);
#364=VECTOR('',#1370,1000.);
#365=VECTOR('',#1371,1000.);
#366=VECTOR('',#1376,1000.);
#367=VECTOR('',#1381,1000.);
#368=VECTOR('',#1382,1000.);
#369=VECTOR('',#1383,1000.);
#370=VECTOR('',#1386,1000.);
#371=VECTOR('',#1387,1000.);
#372=VECTOR('',#1388,1000.);
#373=VECTOR('',#1391,1000.);
#374=VECTOR('',#1392,1000.);
#375=VECTOR('',#1393,1000.);
#376=VECTOR('',#1394,1000.);
#377=VECTOR('',#1395,1000.);
#378=VECTOR('',#1396,1000.);
#379=VECTOR('',#1399,1000.);
#380=VECTOR('',#1400,1000.);
#381=VECTOR('',#1401,1000.);
#382=VECTOR('',#1470,1000.);
#383=VECTOR('',#1471,1000.);
#384=VECTOR('',#1472,1000.);
#385=VECTOR('',#1473,1000.);
#386=VECTOR('',#1474,1000.);
#387=VECTOR('',#1475,1000.);
#388=VECTOR('',#1478,1000.);
#389=VECTOR('',#1479,1000.);
#390=VECTOR('',#1482,1000.);
#391=VECTOR('',#1485,1000.);
#392=VECTOR('',#1488,1000.);
#393=VECTOR('',#1491,1000.);
#394=CIRCLE('',#1075,1.3);
#395=CIRCLE('',#1076,1.3);
#396=CIRCLE('',#1078,2.50000000000006);
#397=CIRCLE('',#1079,2.50000000000006);
#398=CIRCLE('',#1081,1.3);
#399=CIRCLE('',#1082,1.3);
#400=CIRCLE('',#1084,2.50000000000006);
#401=CIRCLE('',#1085,2.50000000000006);
#402=CIRCLE('',#1087,1.);
#403=CIRCLE('',#1088,1.);
#404=CIRCLE('',#1090,0.5);
#405=CIRCLE('',#1091,0.5);
#406=CIRCLE('',#1093,2.);
#407=CIRCLE('',#1095,2.);
#408=CIRCLE('',#1098,3.);
#409=CIRCLE('',#1100,3.);
#410=CIRCLE('',#1102,2.);
#411=CIRCLE('',#1103,2.);
#412=CIRCLE('',#1109,1.5);
#413=CIRCLE('',#1110,1.5);
#414=CIRCLE('',#1111,1.5);
#415=CIRCLE('',#1112,1.5);
#416=CIRCLE('',#1117,0.5);
#417=CIRCLE('',#1118,0.5);
#418=CIRCLE('',#1124,3.);
#419=CIRCLE('',#1127,3.);
#420=CIRCLE('',#1133,3.1);
#421=CIRCLE('',#1134,3.1);
#422=CIRCLE('',#1137,2.6);
#423=CIRCLE('',#1139,2.6);
#424=CIRCLE('',#1143,0.5);
#425=CIRCLE('',#1144,0.5);
#426=CIRCLE('',#1146,0.5);
#427=CIRCLE('',#1148,0.5);
#428=CIRCLE('',#1150,0.5);
#429=CIRCLE('',#1151,0.5);
#430=CIRCLE('',#1153,0.5);
#431=CIRCLE('',#1155,0.5);
#432=CIRCLE('',#1157,1.);
#433=CIRCLE('',#1158,1.);
#434=CIRCLE('',#1160,1.);
#435=CIRCLE('',#1162,1.);
#436=CIRCLE('',#1164,0.999999999999999);
#437=CIRCLE('',#1166,1.);
#438=CIRCLE('',#1168,1.);
#439=CIRCLE('',#1170,1.);
#440=VERTEX_POINT('',#1496);
#441=VERTEX_POINT('',#1498);
#442=VERTEX_POINT('',#1502);
#443=VERTEX_POINT('',#1503);
#444=VERTEX_POINT('',#1505);
#445=VERTEX_POINT('',#1507);
#446=VERTEX_POINT('',#1511);
#447=VERTEX_POINT('',#1513);
#448=VERTEX_POINT('',#1517);
#449=VERTEX_POINT('',#1518);
#450=VERTEX_POINT('',#1520);
#451=VERTEX_POINT('',#1522);
#452=VERTEX_POINT('',#1526);
#453=VERTEX_POINT('',#1528);
#454=VERTEX_POINT('',#1532);
#455=VERTEX_POINT('',#1534);
#456=VERTEX_POINT('',#1536);
#457=VERTEX_POINT('',#1538);
#458=VERTEX_POINT('',#1540);
#459=VERTEX_POINT('',#1542);
#460=VERTEX_POINT('',#1544);
#461=VERTEX_POINT('',#1546);
#462=VERTEX_POINT('',#1548);
#463=VERTEX_POINT('',#1550);
#464=VERTEX_POINT('',#1552);
#465=VERTEX_POINT('',#1554);
#466=VERTEX_POINT('',#1556);
#467=VERTEX_POINT('',#1558);
#468=VERTEX_POINT('',#1560);
#469=VERTEX_POINT('',#1562);
#470=VERTEX_POINT('',#1565);
#471=VERTEX_POINT('',#1567);
#472=VERTEX_POINT('',#1571);
#473=VERTEX_POINT('',#1572);
#474=VERTEX_POINT('',#1574);
#475=VERTEX_POINT('',#1576);
#476=VERTEX_POINT('',#1578);
#477=VERTEX_POINT('',#1582);
#478=VERTEX_POINT('',#1583);
#479=VERTEX_POINT('',#1585);
#480=VERTEX_POINT('',#1587);
#481=VERTEX_POINT('',#1589);
#482=VERTEX_POINT('',#1593);
#483=VERTEX_POINT('',#1595);
#484=VERTEX_POINT('',#1599);
#485=VERTEX_POINT('',#1604);
#486=VERTEX_POINT('',#1609);
#487=VERTEX_POINT('',#1610);
#488=VERTEX_POINT('',#1613);
#489=VERTEX_POINT('',#1615);
#490=VERTEX_POINT('',#1625);
#491=VERTEX_POINT('',#1626);
#492=VERTEX_POINT('',#1631);
#493=VERTEX_POINT('',#1635);
#494=VERTEX_POINT('',#1640);
#495=VERTEX_POINT('',#1641);
#496=VERTEX_POINT('',#1643);
#497=VERTEX_POINT('',#1645);
#498=VERTEX_POINT('',#1647);
#499=VERTEX_POINT('',#1649);
#500=VERTEX_POINT('',#1651);
#501=VERTEX_POINT('',#1653);
#502=VERTEX_POINT('',#1657);
#503=VERTEX_POINT('',#1661);
#504=VERTEX_POINT('',#1663);
#505=VERTEX_POINT('',#1667);
#506=VERTEX_POINT('',#1690);
#507=VERTEX_POINT('',#1691);
#508=VERTEX_POINT('',#1693);
#509=VERTEX_POINT('',#1695);
#510=VERTEX_POINT('',#1699);
#511=VERTEX_POINT('',#1701);
#512=VERTEX_POINT('',#1705);
#513=VERTEX_POINT('',#1707);
#514=VERTEX_POINT('',#1711);
#515=VERTEX_POINT('',#1712);
#516=VERTEX_POINT('',#1714);
#517=VERTEX_POINT('',#1716);
#518=VERTEX_POINT('',#1719);
#519=VERTEX_POINT('',#1720);
#520=VERTEX_POINT('',#1722);
#521=VERTEX_POINT('',#1724);
#522=VERTEX_POINT('',#1726);
#523=VERTEX_POINT('',#1728);
#524=VERTEX_POINT('',#1732);
#525=VERTEX_POINT('',#1733);
#526=VERTEX_POINT('',#1735);
#527=VERTEX_POINT('',#1737);
#528=VERTEX_POINT('',#1773);
#529=VERTEX_POINT('',#1774);
#530=VERTEX_POINT('',#1776);
#531=VERTEX_POINT('',#1778);
#532=VERTEX_POINT('',#1780);
#533=VERTEX_POINT('',#1782);
#534=EDGE_CURVE('',#440,#440,#394,.T.);
#535=EDGE_CURVE('',#440,#441,#188,.T.);
#536=EDGE_CURVE('',#441,#441,#395,.T.);
#537=EDGE_CURVE('',#442,#443,#396,.T.);
#538=EDGE_CURVE('',#442,#444,#189,.T.);
#539=EDGE_CURVE('',#444,#445,#397,.T.);
#540=EDGE_CURVE('',#443,#445,#190,.T.);
#541=EDGE_CURVE('',#446,#446,#398,.F.);
#542=EDGE_CURVE('',#446,#447,#191,.T.);
#543=EDGE_CURVE('',#447,#447,#399,.F.);
#544=EDGE_CURVE('',#448,#449,#400,.T.);
#545=EDGE_CURVE('',#449,#450,#192,.T.);
#546=EDGE_CURVE('',#451,#450,#401,.T.);
#547=EDGE_CURVE('',#448,#451,#193,.T.);
#548=EDGE_CURVE('',#452,#452,#402,.T.);
#549=EDGE_CURVE('',#452,#453,#194,.T.);
#550=EDGE_CURVE('',#453,#453,#403,.T.);
#551=EDGE_CURVE('',#445,#454,#195,.T.);
#552=EDGE_CURVE('',#454,#455,#196,.T.);
#553=EDGE_CURVE('',#455,#456,#197,.T.);
#554=EDGE_CURVE('',#456,#457,#198,.T.);
#555=EDGE_CURVE('',#458,#457,#199,.T.);
#556=EDGE_CURVE('',#458,#459,#404,.T.);
#557=EDGE_CURVE('',#460,#459,#200,.T.);
#558=EDGE_CURVE('',#461,#460,#201,.T.);
#559=EDGE_CURVE('',#462,#461,#202,.T.);
#560=EDGE_CURVE('',#463,#462,#203,.T.);
#561=EDGE_CURVE('',#464,#463,#204,.T.);
#562=EDGE_CURVE('',#464,#465,#405,.T.);
#563=EDGE_CURVE('',#466,#465,#205,.T.);
#564=EDGE_CURVE('',#466,#467,#206,.T.);
#565=EDGE_CURVE('',#467,#468,#207,.T.);
#566=EDGE_CURVE('',#468,#469,#208,.T.);
#567=EDGE_CURVE('',#450,#469,#209,.T.);
#568=EDGE_CURVE('',#449,#470,#210,.T.);
#569=EDGE_CURVE('',#470,#471,#211,.T.);
#570=EDGE_CURVE('',#443,#471,#212,.T.);
#571=EDGE_CURVE('',#472,#473,#213,.T.);
#572=EDGE_CURVE('',#473,#474,#406,.T.);
#573=EDGE_CURVE('',#475,#474,#214,.T.);
#574=EDGE_CURVE('',#476,#475,#215,.T.);
#575=EDGE_CURVE('',#476,#472,#216,.T.);
#576=EDGE_CURVE('',#477,#478,#217,.T.);
#577=EDGE_CURVE('',#478,#479,#407,.T.);
#578=EDGE_CURVE('',#479,#480,#218,.T.);
#579=EDGE_CURVE('',#481,#480,#219,.T.);
#580=EDGE_CURVE('',#477,#481,#220,.T.);
#581=EDGE_CURVE('',#471,#482,#221,.T.);
#582=EDGE_CURVE('',#470,#483,#222,.T.);
#583=EDGE_CURVE('',#483,#482,#223,.T.);
#584=EDGE_CURVE('',#467,#484,#224,.T.);
#585=EDGE_CURVE('',#484,#478,#225,.T.);
#586=EDGE_CURVE('',#468,#477,#408,.T.);
#587=EDGE_CURVE('',#474,#485,#226,.T.);
#588=EDGE_CURVE('',#456,#485,#227,.T.);
#589=EDGE_CURVE('',#475,#455,#409,.T.);
#590=EDGE_CURVE('',#486,#487,#228,.T.);
#591=EDGE_CURVE('',#487,#484,#410,.T.);
#592=EDGE_CURVE('',#488,#466,#229,.T.);
#593=EDGE_CURVE('',#489,#488,#230,.T.);
#594=EDGE_CURVE('',#489,#457,#231,.T.);
#595=EDGE_CURVE('',#485,#486,#411,.T.);
#596=EDGE_CURVE('',#479,#487,#232,.T.);
#597=EDGE_CURVE('',#486,#473,#233,.T.);
#598=EDGE_CURVE('',#482,#472,#234,.T.);
#599=EDGE_CURVE('',#483,#480,#235,.T.);
#600=EDGE_CURVE('',#490,#491,#236,.T.);
#601=EDGE_CURVE('',#463,#490,#237,.T.);
#602=EDGE_CURVE('',#462,#491,#238,.T.);
#603=EDGE_CURVE('',#491,#492,#239,.T.);
#604=EDGE_CURVE('',#461,#492,#240,.T.);
#605=EDGE_CURVE('',#492,#493,#241,.T.);
#606=EDGE_CURVE('',#460,#493,#242,.T.);
#607=EDGE_CURVE('',#493,#490,#243,.T.);
#608=EDGE_CURVE('',#494,#495,#244,.T.);
#609=EDGE_CURVE('',#495,#496,#412,.T.);
#610=EDGE_CURVE('',#496,#497,#245,.T.);
#611=EDGE_CURVE('',#497,#498,#413,.T.);
#612=EDGE_CURVE('',#498,#499,#246,.T.);
#613=EDGE_CURVE('',#499,#500,#414,.T.);
#614=EDGE_CURVE('',#500,#501,#247,.T.);
#615=EDGE_CURVE('',#501,#494,#415,.T.);
#616=EDGE_CURVE('',#502,#489,#248,.T.);
#617=EDGE_CURVE('',#502,#458,#249,.T.);
#618=EDGE_CURVE('',#459,#503,#250,.T.);
#619=EDGE_CURVE('',#504,#503,#251,.T.);
#620=EDGE_CURVE('',#504,#464,#252,.T.);
#621=EDGE_CURVE('',#465,#505,#253,.T.);
#622=EDGE_CURVE('',#488,#505,#254,.T.);
#623=EDGE_CURVE('',#503,#502,#416,.T.);
#624=EDGE_CURVE('',#505,#504,#417,.T.);
#625=EDGE_CURVE('',#480,#451,#255,.T.);
#626=EDGE_CURVE('',#483,#448,#256,.T.);
#627=EDGE_CURVE('',#469,#481,#418,.F.);
#628=EDGE_CURVE('',#482,#442,#257,.T.);
#629=EDGE_CURVE('',#472,#444,#258,.T.);
#630=EDGE_CURVE('',#476,#454,#419,.F.);
#631=EDGE_CURVE('',#506,#507,#259,.T.);
#632=EDGE_CURVE('',#507,#508,#260,.T.);
#633=EDGE_CURVE('',#508,#509,#261,.T.);
#634=EDGE_CURVE('',#506,#509,#262,.T.);
#635=EDGE_CURVE('',#509,#510,#420,.T.);
#636=EDGE_CURVE('',#511,#510,#263,.T.);
#637=EDGE_CURVE('',#511,#506,#421,.T.);
#638=EDGE_CURVE('',#510,#512,#264,.T.);
#639=EDGE_CURVE('',#512,#513,#265,.T.);
#640=EDGE_CURVE('',#513,#511,#266,.T.);
#641=EDGE_CURVE('',#514,#515,#267,.T.);
#642=EDGE_CURVE('',#515,#516,#268,.T.);
#643=EDGE_CURVE('',#516,#517,#269,.T.);
#644=EDGE_CURVE('',#517,#514,#422,.T.);
#645=EDGE_CURVE('',#518,#519,#270,.T.);
#646=EDGE_CURVE('',#520,#518,#271,.T.);
#647=EDGE_CURVE('',#521,#520,#272,.T.);
#648=EDGE_CURVE('',#522,#521,#273,.T.);
#649=EDGE_CURVE('',#523,#522,#274,.T.);
#650=EDGE_CURVE('',#519,#523,#275,.T.);
#651=EDGE_CURVE('',#524,#525,#276,.T.);
#652=EDGE_CURVE('',#525,#526,#277,.T.);
#653=EDGE_CURVE('',#526,#527,#278,.T.);
#654=EDGE_CURVE('',#527,#524,#423,.T.);
#655=EDGE_CURVE('',#508,#525,#424,.T.);
#656=EDGE_CURVE('',#509,#524,#425,.T.);
#657=EDGE_CURVE('',#510,#527,#426,.T.);
#658=EDGE_CURVE('',#526,#512,#427,.T.);
#659=EDGE_CURVE('',#516,#507,#428,.T.);
#660=EDGE_CURVE('',#517,#506,#429,.T.);
#661=EDGE_CURVE('',#514,#511,#430,.T.);
#662=EDGE_CURVE('',#513,#515,#431,.T.);
#663=EDGE_CURVE('',#512,#499,#432,.T.);
#664=EDGE_CURVE('',#500,#526,#433,.T.);
#665=EDGE_CURVE('',#501,#525,#434,.T.);
#666=EDGE_CURVE('',#513,#498,#435,.T.);
#667=EDGE_CURVE('',#494,#508,#436,.T.);
#668=EDGE_CURVE('',#515,#497,#437,.T.);
#669=EDGE_CURVE('',#495,#507,#438,.T.);
#670=EDGE_CURVE('',#516,#496,#439,.T.);
#671=EDGE_CURVE('',#528,#529,#279,.T.);
#672=EDGE_CURVE('',#529,#530,#280,.T.);
#673=EDGE_CURVE('',#530,#531,#281,.T.);
#674=EDGE_CURVE('',#531,#532,#282,.T.);
#675=EDGE_CURVE('',#532,#533,#283,.T.);
#676=EDGE_CURVE('',#533,#528,#284,.T.);
#677=EDGE_CURVE('',#529,#519,#285,.T.);
#678=EDGE_CURVE('',#528,#518,#286,.T.);
#679=EDGE_CURVE('',#533,#520,#287,.T.);
#680=EDGE_CURVE('',#532,#521,#288,.T.);
#681=EDGE_CURVE('',#531,#522,#289,.T.);
#682=EDGE_CURVE('',#530,#523,#290,.T.);
#683=ORIENTED_EDGE('',*,*,#534,.T.);
#684=ORIENTED_EDGE('',*,*,#535,.T.);
#685=ORIENTED_EDGE('',*,*,#536,.F.);
#686=ORIENTED_EDGE('',*,*,#535,.F.);
#687=ORIENTED_EDGE('',*,*,#537,.F.);
#688=ORIENTED_EDGE('',*,*,#538,.T.);
#689=ORIENTED_EDGE('',*,*,#539,.T.);
#690=ORIENTED_EDGE('',*,*,#540,.F.);
#691=ORIENTED_EDGE('',*,*,#541,.F.);
#692=ORIENTED_EDGE('',*,*,#542,.T.);
#693=ORIENTED_EDGE('',*,*,#543,.T.);
#694=ORIENTED_EDGE('',*,*,#542,.F.);
#695=ORIENTED_EDGE('',*,*,#544,.T.);
#696=ORIENTED_EDGE('',*,*,#545,.T.);
#697=ORIENTED_EDGE('',*,*,#546,.F.);
#698=ORIENTED_EDGE('',*,*,#547,.F.);
#699=ORIENTED_EDGE('',*,*,#548,.F.);
#700=ORIENTED_EDGE('',*,*,#549,.T.);
#701=ORIENTED_EDGE('',*,*,#550,.T.);
#702=ORIENTED_EDGE('',*,*,#549,.F.);
#703=ORIENTED_EDGE('',*,*,#540,.T.);
#704=ORIENTED_EDGE('',*,*,#551,.T.);
#705=ORIENTED_EDGE('',*,*,#552,.T.);
#706=ORIENTED_EDGE('',*,*,#553,.T.);
#707=ORIENTED_EDGE('',*,*,#554,.T.);
#708=ORIENTED_EDGE('',*,*,#555,.F.);
#709=ORIENTED_EDGE('',*,*,#556,.T.);
#710=ORIENTED_EDGE('',*,*,#557,.F.);
#711=ORIENTED_EDGE('',*,*,#558,.F.);
#712=ORIENTED_EDGE('',*,*,#559,.F.);
#713=ORIENTED_EDGE('',*,*,#560,.F.);
#714=ORIENTED_EDGE('',*,*,#561,.F.);
#715=ORIENTED_EDGE('',*,*,#562,.T.);
#716=ORIENTED_EDGE('',*,*,#563,.F.);
#717=ORIENTED_EDGE('',*,*,#564,.T.);
#718=ORIENTED_EDGE('',*,*,#565,.T.);
#719=ORIENTED_EDGE('',*,*,#566,.T.);
#720=ORIENTED_EDGE('',*,*,#567,.F.);
#721=ORIENTED_EDGE('',*,*,#545,.F.);
#722=ORIENTED_EDGE('',*,*,#568,.T.);
#723=ORIENTED_EDGE('',*,*,#569,.T.);
#724=ORIENTED_EDGE('',*,*,#570,.F.);
#725=ORIENTED_EDGE('',*,*,#571,.T.);
#726=ORIENTED_EDGE('',*,*,#572,.T.);
#727=ORIENTED_EDGE('',*,*,#573,.F.);
#728=ORIENTED_EDGE('',*,*,#574,.F.);
#729=ORIENTED_EDGE('',*,*,#575,.T.);
#730=ORIENTED_EDGE('',*,*,#576,.T.);
#731=ORIENTED_EDGE('',*,*,#577,.T.);
#732=ORIENTED_EDGE('',*,*,#578,.T.);
#733=ORIENTED_EDGE('',*,*,#579,.F.);
#734=ORIENTED_EDGE('',*,*,#580,.F.);
#735=ORIENTED_EDGE('',*,*,#581,.F.);
#736=ORIENTED_EDGE('',*,*,#569,.F.);
#737=ORIENTED_EDGE('',*,*,#582,.T.);
#738=ORIENTED_EDGE('',*,*,#583,.T.);
#739=ORIENTED_EDGE('',*,*,#584,.T.);
#740=ORIENTED_EDGE('',*,*,#585,.T.);
#741=ORIENTED_EDGE('',*,*,#576,.F.);
#742=ORIENTED_EDGE('',*,*,#586,.F.);
#743=ORIENTED_EDGE('',*,*,#565,.F.);
#744=ORIENTED_EDGE('',*,*,#573,.T.);
#745=ORIENTED_EDGE('',*,*,#587,.T.);
#746=ORIENTED_EDGE('',*,*,#588,.F.);
#747=ORIENTED_EDGE('',*,*,#553,.F.);
#748=ORIENTED_EDGE('',*,*,#589,.F.);
#749=ORIENTED_EDGE('',*,*,#590,.T.);
#750=ORIENTED_EDGE('',*,*,#591,.T.);
#751=ORIENTED_EDGE('',*,*,#584,.F.);
#752=ORIENTED_EDGE('',*,*,#564,.F.);
#753=ORIENTED_EDGE('',*,*,#592,.F.);
#754=ORIENTED_EDGE('',*,*,#593,.F.);
#755=ORIENTED_EDGE('',*,*,#594,.T.);
#756=ORIENTED_EDGE('',*,*,#554,.F.);
#757=ORIENTED_EDGE('',*,*,#588,.T.);
#758=ORIENTED_EDGE('',*,*,#595,.T.);
#759=ORIENTED_EDGE('',*,*,#578,.F.);
#760=ORIENTED_EDGE('',*,*,#596,.T.);
#761=ORIENTED_EDGE('',*,*,#590,.F.);
#762=ORIENTED_EDGE('',*,*,#597,.T.);
#763=ORIENTED_EDGE('',*,*,#571,.F.);
#764=ORIENTED_EDGE('',*,*,#598,.F.);
#765=ORIENTED_EDGE('',*,*,#583,.F.);
#766=ORIENTED_EDGE('',*,*,#599,.T.);
#767=ORIENTED_EDGE('',*,*,#600,.F.);
#768=ORIENTED_EDGE('',*,*,#601,.F.);
#769=ORIENTED_EDGE('',*,*,#560,.T.);
#770=ORIENTED_EDGE('',*,*,#602,.T.);
#771=ORIENTED_EDGE('',*,*,#603,.F.);
#772=ORIENTED_EDGE('',*,*,#602,.F.);
#773=ORIENTED_EDGE('',*,*,#559,.T.);
#774=ORIENTED_EDGE('',*,*,#604,.T.);
#775=ORIENTED_EDGE('',*,*,#605,.F.);
#776=ORIENTED_EDGE('',*,*,#604,.F.);
#777=ORIENTED_EDGE('',*,*,#558,.T.);
#778=ORIENTED_EDGE('',*,*,#606,.T.);
#779=ORIENTED_EDGE('',*,*,#600,.T.);
#780=ORIENTED_EDGE('',*,*,#603,.T.);
#781=ORIENTED_EDGE('',*,*,#605,.T.);
#782=ORIENTED_EDGE('',*,*,#607,.T.);
#783=ORIENTED_EDGE('',*,*,#608,.T.);
#784=ORIENTED_EDGE('',*,*,#609,.T.);
#785=ORIENTED_EDGE('',*,*,#610,.T.);
#786=ORIENTED_EDGE('',*,*,#611,.T.);
#787=ORIENTED_EDGE('',*,*,#612,.T.);
#788=ORIENTED_EDGE('',*,*,#613,.T.);
#789=ORIENTED_EDGE('',*,*,#614,.T.);
#790=ORIENTED_EDGE('',*,*,#615,.T.);
#791=ORIENTED_EDGE('',*,*,#616,.F.);
#792=ORIENTED_EDGE('',*,*,#617,.T.);
#793=ORIENTED_EDGE('',*,*,#555,.T.);
#794=ORIENTED_EDGE('',*,*,#594,.F.);
#795=ORIENTED_EDGE('',*,*,#557,.T.);
#796=ORIENTED_EDGE('',*,*,#618,.T.);
#797=ORIENTED_EDGE('',*,*,#619,.F.);
#798=ORIENTED_EDGE('',*,*,#620,.T.);
#799=ORIENTED_EDGE('',*,*,#561,.T.);
#800=ORIENTED_EDGE('',*,*,#601,.T.);
#801=ORIENTED_EDGE('',*,*,#607,.F.);
#802=ORIENTED_EDGE('',*,*,#606,.F.);
#803=ORIENTED_EDGE('',*,*,#563,.T.);
#804=ORIENTED_EDGE('',*,*,#621,.T.);
#805=ORIENTED_EDGE('',*,*,#622,.F.);
#806=ORIENTED_EDGE('',*,*,#592,.T.);
#807=ORIENTED_EDGE('',*,*,#619,.T.);
#808=ORIENTED_EDGE('',*,*,#623,.T.);
#809=ORIENTED_EDGE('',*,*,#616,.T.);
#810=ORIENTED_EDGE('',*,*,#593,.T.);
#811=ORIENTED_EDGE('',*,*,#622,.T.);
#812=ORIENTED_EDGE('',*,*,#624,.T.);
#813=ORIENTED_EDGE('',*,*,#623,.F.);
#814=ORIENTED_EDGE('',*,*,#618,.F.);
#815=ORIENTED_EDGE('',*,*,#556,.F.);
#816=ORIENTED_EDGE('',*,*,#617,.F.);
#817=ORIENTED_EDGE('',*,*,#624,.F.);
#818=ORIENTED_EDGE('',*,*,#621,.F.);
#819=ORIENTED_EDGE('',*,*,#562,.F.);
#820=ORIENTED_EDGE('',*,*,#620,.F.);
#821=ORIENTED_EDGE('',*,*,#625,.F.);
#822=ORIENTED_EDGE('',*,*,#599,.F.);
#823=ORIENTED_EDGE('',*,*,#626,.T.);
#824=ORIENTED_EDGE('',*,*,#547,.T.);
#825=ORIENTED_EDGE('',*,*,#582,.F.);
#826=ORIENTED_EDGE('',*,*,#568,.F.);
#827=ORIENTED_EDGE('',*,*,#544,.F.);
#828=ORIENTED_EDGE('',*,*,#626,.F.);
#829=ORIENTED_EDGE('',*,*,#541,.T.);
#830=ORIENTED_EDGE('',*,*,#546,.T.);
#831=ORIENTED_EDGE('',*,*,#567,.T.);
#832=ORIENTED_EDGE('',*,*,#627,.T.);
#833=ORIENTED_EDGE('',*,*,#579,.T.);
#834=ORIENTED_EDGE('',*,*,#625,.T.);
#835=ORIENTED_EDGE('',*,*,#543,.F.);
#836=ORIENTED_EDGE('',*,*,#581,.T.);
#837=ORIENTED_EDGE('',*,*,#628,.T.);
#838=ORIENTED_EDGE('',*,*,#537,.T.);
#839=ORIENTED_EDGE('',*,*,#570,.T.);
#840=ORIENTED_EDGE('',*,*,#534,.F.);
#841=ORIENTED_EDGE('',*,*,#629,.F.);
#842=ORIENTED_EDGE('',*,*,#575,.F.);
#843=ORIENTED_EDGE('',*,*,#630,.T.);
#844=ORIENTED_EDGE('',*,*,#551,.F.);
#845=ORIENTED_EDGE('',*,*,#539,.F.);
#846=ORIENTED_EDGE('',*,*,#536,.T.);
#847=ORIENTED_EDGE('',*,*,#629,.T.);
#848=ORIENTED_EDGE('',*,*,#538,.F.);
#849=ORIENTED_EDGE('',*,*,#628,.F.);
#850=ORIENTED_EDGE('',*,*,#598,.T.);
#851=ORIENTED_EDGE('',*,*,#586,.T.);
#852=ORIENTED_EDGE('',*,*,#580,.T.);
#853=ORIENTED_EDGE('',*,*,#627,.F.);
#854=ORIENTED_EDGE('',*,*,#566,.F.);
#855=ORIENTED_EDGE('',*,*,#574,.T.);
#856=ORIENTED_EDGE('',*,*,#589,.T.);
#857=ORIENTED_EDGE('',*,*,#552,.F.);
#858=ORIENTED_EDGE('',*,*,#630,.F.);
#859=ORIENTED_EDGE('',*,*,#631,.T.);
#860=ORIENTED_EDGE('',*,*,#632,.T.);
#861=ORIENTED_EDGE('',*,*,#633,.T.);
#862=ORIENTED_EDGE('',*,*,#634,.F.);
#863=ORIENTED_EDGE('',*,*,#634,.T.);
#864=ORIENTED_EDGE('',*,*,#635,.T.);
#865=ORIENTED_EDGE('',*,*,#636,.F.);
#866=ORIENTED_EDGE('',*,*,#637,.T.);
#867=ORIENTED_EDGE('',*,*,#638,.T.);
#868=ORIENTED_EDGE('',*,*,#639,.T.);
#869=ORIENTED_EDGE('',*,*,#640,.T.);
#870=ORIENTED_EDGE('',*,*,#636,.T.);
#871=ORIENTED_EDGE('',*,*,#641,.T.);
#872=ORIENTED_EDGE('',*,*,#642,.T.);
#873=ORIENTED_EDGE('',*,*,#643,.T.);
#874=ORIENTED_EDGE('',*,*,#644,.T.);
#875=ORIENTED_EDGE('',*,*,#645,.F.);
#876=ORIENTED_EDGE('',*,*,#646,.F.);
#877=ORIENTED_EDGE('',*,*,#647,.F.);
#878=ORIENTED_EDGE('',*,*,#648,.F.);
#879=ORIENTED_EDGE('',*,*,#649,.F.);
#880=ORIENTED_EDGE('',*,*,#650,.F.);
#881=ORIENTED_EDGE('',*,*,#651,.T.);
#882=ORIENTED_EDGE('',*,*,#652,.T.);
#883=ORIENTED_EDGE('',*,*,#653,.T.);
#884=ORIENTED_EDGE('',*,*,#654,.T.);
#885=ORIENTED_EDGE('',*,*,#550,.F.);
#886=ORIENTED_EDGE('',*,*,#591,.F.);
#887=ORIENTED_EDGE('',*,*,#596,.F.);
#888=ORIENTED_EDGE('',*,*,#577,.F.);
#889=ORIENTED_EDGE('',*,*,#585,.F.);
#890=ORIENTED_EDGE('',*,*,#572,.F.);
#891=ORIENTED_EDGE('',*,*,#597,.F.);
#892=ORIENTED_EDGE('',*,*,#595,.F.);
#893=ORIENTED_EDGE('',*,*,#587,.F.);
#894=ORIENTED_EDGE('',*,*,#633,.F.);
#895=ORIENTED_EDGE('',*,*,#655,.T.);
#896=ORIENTED_EDGE('',*,*,#651,.F.);
#897=ORIENTED_EDGE('',*,*,#656,.F.);
#898=ORIENTED_EDGE('',*,*,#656,.T.);
#899=ORIENTED_EDGE('',*,*,#654,.F.);
#900=ORIENTED_EDGE('',*,*,#657,.F.);
#901=ORIENTED_EDGE('',*,*,#635,.F.);
#902=ORIENTED_EDGE('',*,*,#653,.F.);
#903=ORIENTED_EDGE('',*,*,#658,.T.);
#904=ORIENTED_EDGE('',*,*,#638,.F.);
#905=ORIENTED_EDGE('',*,*,#657,.T.);
#906=ORIENTED_EDGE('',*,*,#643,.F.);
#907=ORIENTED_EDGE('',*,*,#659,.T.);
#908=ORIENTED_EDGE('',*,*,#631,.F.);
#909=ORIENTED_EDGE('',*,*,#660,.F.);
#910=ORIENTED_EDGE('',*,*,#660,.T.);
#911=ORIENTED_EDGE('',*,*,#637,.F.);
#912=ORIENTED_EDGE('',*,*,#661,.F.);
#913=ORIENTED_EDGE('',*,*,#644,.F.);
#914=ORIENTED_EDGE('',*,*,#640,.F.);
#915=ORIENTED_EDGE('',*,*,#662,.T.);
#916=ORIENTED_EDGE('',*,*,#641,.F.);
#917=ORIENTED_EDGE('',*,*,#661,.T.);
#918=ORIENTED_EDGE('',*,*,#663,.F.);
#919=ORIENTED_EDGE('',*,*,#658,.F.);
#920=ORIENTED_EDGE('',*,*,#664,.F.);
#921=ORIENTED_EDGE('',*,*,#613,.F.);
#922=ORIENTED_EDGE('',*,*,#664,.T.);
#923=ORIENTED_EDGE('',*,*,#652,.F.);
#924=ORIENTED_EDGE('',*,*,#665,.F.);
#925=ORIENTED_EDGE('',*,*,#614,.F.);
#926=ORIENTED_EDGE('',*,*,#663,.T.);
#927=ORIENTED_EDGE('',*,*,#612,.F.);
#928=ORIENTED_EDGE('',*,*,#666,.F.);
#929=ORIENTED_EDGE('',*,*,#639,.F.);
#930=ORIENTED_EDGE('',*,*,#665,.T.);
#931=ORIENTED_EDGE('',*,*,#655,.F.);
#932=ORIENTED_EDGE('',*,*,#667,.F.);
#933=ORIENTED_EDGE('',*,*,#615,.F.);
#934=ORIENTED_EDGE('',*,*,#666,.T.);
#935=ORIENTED_EDGE('',*,*,#611,.F.);
#936=ORIENTED_EDGE('',*,*,#668,.F.);
#937=ORIENTED_EDGE('',*,*,#662,.F.);
#938=ORIENTED_EDGE('',*,*,#667,.T.);
#939=ORIENTED_EDGE('',*,*,#632,.F.);
#940=ORIENTED_EDGE('',*,*,#669,.F.);
#941=ORIENTED_EDGE('',*,*,#608,.F.);
#942=ORIENTED_EDGE('',*,*,#668,.T.);
#943=ORIENTED_EDGE('',*,*,#610,.F.);
#944=ORIENTED_EDGE('',*,*,#670,.F.);
#945=ORIENTED_EDGE('',*,*,#642,.F.);
#946=ORIENTED_EDGE('',*,*,#669,.T.);
#947=ORIENTED_EDGE('',*,*,#659,.F.);
#948=ORIENTED_EDGE('',*,*,#670,.T.);
#949=ORIENTED_EDGE('',*,*,#609,.F.);
#950=ORIENTED_EDGE('',*,*,#671,.T.);
#951=ORIENTED_EDGE('',*,*,#672,.T.);
#952=ORIENTED_EDGE('',*,*,#673,.T.);
#953=ORIENTED_EDGE('',*,*,#674,.T.);
#954=ORIENTED_EDGE('',*,*,#675,.T.);
#955=ORIENTED_EDGE('',*,*,#676,.T.);
#956=ORIENTED_EDGE('',*,*,#548,.T.);
#957=ORIENTED_EDGE('',*,*,#645,.T.);
#958=ORIENTED_EDGE('',*,*,#677,.F.);
#959=ORIENTED_EDGE('',*,*,#671,.F.);
#960=ORIENTED_EDGE('',*,*,#678,.T.);
#961=ORIENTED_EDGE('',*,*,#646,.T.);
#962=ORIENTED_EDGE('',*,*,#678,.F.);
#963=ORIENTED_EDGE('',*,*,#676,.F.);
#964=ORIENTED_EDGE('',*,*,#679,.T.);
#965=ORIENTED_EDGE('',*,*,#647,.T.);
#966=ORIENTED_EDGE('',*,*,#679,.F.);
#967=ORIENTED_EDGE('',*,*,#675,.F.);
#968=ORIENTED_EDGE('',*,*,#680,.T.);
#969=ORIENTED_EDGE('',*,*,#648,.T.);
#970=ORIENTED_EDGE('',*,*,#680,.F.);
#971=ORIENTED_EDGE('',*,*,#674,.F.);
#972=ORIENTED_EDGE('',*,*,#681,.T.);
#973=ORIENTED_EDGE('',*,*,#649,.T.);
#974=ORIENTED_EDGE('',*,*,#681,.F.);
#975=ORIENTED_EDGE('',*,*,#673,.F.);
#976=ORIENTED_EDGE('',*,*,#682,.T.);
#977=ORIENTED_EDGE('',*,*,#650,.T.);
#978=ORIENTED_EDGE('',*,*,#682,.F.);
#979=ORIENTED_EDGE('',*,*,#672,.F.);
#980=ORIENTED_EDGE('',*,*,#677,.T.);
#981=CYLINDRICAL_SURFACE('',#1074,1.3);
#982=CYLINDRICAL_SURFACE('',#1077,2.50000000000006);
#983=CYLINDRICAL_SURFACE('',#1080,1.3);
#984=CYLINDRICAL_SURFACE('',#1083,2.50000000000006);
#985=CYLINDRICAL_SURFACE('',#1086,1.);
#986=CYLINDRICAL_SURFACE('',#1119,0.5);
#987=CYLINDRICAL_SURFACE('',#1120,0.5);
#988=CYLINDRICAL_SURFACE('',#1129,3.);
#989=CYLINDRICAL_SURFACE('',#1130,3.);
#990=CYLINDRICAL_SURFACE('',#1132,3.1);
#991=CYLINDRICAL_SURFACE('',#1140,2.);
#992=CYLINDRICAL_SURFACE('',#1141,2.);
#993=CYLINDRICAL_SURFACE('',#1142,0.5);
#994=CYLINDRICAL_SURFACE('',#1147,0.5);
#995=CYLINDRICAL_SURFACE('',#1149,0.5);
#996=CYLINDRICAL_SURFACE('',#1154,0.5);
#997=CYLINDRICAL_SURFACE('',#1159,1.);
#998=CYLINDRICAL_SURFACE('',#1161,1.);
#999=CYLINDRICAL_SURFACE('',#1167,1.);
#1000=CYLINDRICAL_SURFACE('',#1169,1.);
#1001=ADVANCED_FACE('',(#62),#981,.F.);
#1002=ADVANCED_FACE('',(#63),#982,.T.);
#1003=ADVANCED_FACE('',(#64),#983,.F.);
#1004=ADVANCED_FACE('',(#65),#984,.T.);
#1005=ADVANCED_FACE('',(#66),#985,.F.);
#1006=ADVANCED_FACE('',(#67),#29,.T.);
#1007=ADVANCED_FACE('',(#68),#30,.F.);
#1008=ADVANCED_FACE('',(#69),#31,.F.);
#1009=ADVANCED_FACE('',(#70),#32,.F.);
#1010=ADVANCED_FACE('',(#71),#33,.F.);
#1011=ADVANCED_FACE('',(#72),#34,.F.);
#1012=ADVANCED_FACE('',(#73),#35,.F.);
#1013=ADVANCED_FACE('',(#74),#36,.F.);
#1014=ADVANCED_FACE('',(#75),#37,.T.);
#1015=ADVANCED_FACE('',(#76),#38,.T.);
#1016=ADVANCED_FACE('',(#77),#39,.T.);
#1017=ADVANCED_FACE('',(#78,#21),#40,.T.);
#1018=ADVANCED_FACE('',(#79),#41,.F.);
#1019=ADVANCED_FACE('',(#80),#42,.F.);
#1020=ADVANCED_FACE('',(#81),#43,.F.);
#1021=ADVANCED_FACE('',(#82),#44,.T.);
#1022=ADVANCED_FACE('',(#83),#986,.F.);
#1023=ADVANCED_FACE('',(#84),#987,.F.);
#1024=ADVANCED_FACE('',(#85),#45,.T.);
#1025=ADVANCED_FACE('',(#86,#22),#46,.F.);
#1026=ADVANCED_FACE('',(#87,#23),#47,.T.);
#1027=ADVANCED_FACE('',(#88,#24),#48,.F.);
#1028=ADVANCED_FACE('',(#89,#25),#49,.T.);
#1029=ADVANCED_FACE('',(#90),#50,.F.);
#1030=ADVANCED_FACE('',(#91),#988,.F.);
#1031=ADVANCED_FACE('',(#92),#989,.F.);
#1032=ADVANCED_FACE('',(#93),#51,.T.);
#1033=ADVANCED_FACE('',(#94),#990,.T.);
#1034=ADVANCED_FACE('',(#95),#52,.T.);
#1035=ADVANCED_FACE('',(#96,#26),#53,.T.);
#1036=ADVANCED_FACE('',(#97,#27),#54,.F.);
#1037=ADVANCED_FACE('',(#98),#991,.T.);
#1038=ADVANCED_FACE('',(#99),#992,.T.);
#1039=ADVANCED_FACE('',(#100),#993,.T.);
#1040=ADVANCED_FACE('',(#101),#15,.T.);
#1041=ADVANCED_FACE('',(#102),#994,.T.);
#1042=ADVANCED_FACE('',(#103),#995,.T.);
#1043=ADVANCED_FACE('',(#104),#16,.T.);
#1044=ADVANCED_FACE('',(#105),#996,.T.);
#1045=ADVANCED_FACE('',(#106),#17,.F.);
#1046=ADVANCED_FACE('',(#107),#997,.F.);
#1047=ADVANCED_FACE('',(#108),#998,.F.);
#1048=ADVANCED_FACE('',(#109),#18,.F.);
#1049=ADVANCED_FACE('',(#110),#19,.F.);
#1050=ADVANCED_FACE('',(#111),#999,.F.);
#1051=ADVANCED_FACE('',(#112),#1000,.F.);
#1052=ADVANCED_FACE('',(#113),#20,.F.);
#1053=ADVANCED_FACE('',(#114,#28),#55,.T.);
#1054=ADVANCED_FACE('',(#115),#56,.F.);
#1055=ADVANCED_FACE('',(#116),#57,.F.);
#1056=ADVANCED_FACE('',(#117),#58,.F.);
#1057=ADVANCED_FACE('',(#118),#59,.F.);
#1058=ADVANCED_FACE('',(#119),#60,.F.);
#1059=ADVANCED_FACE('',(#120),#61,.F.);
#1060=CLOSED_SHELL('',(#1001,#1002,#1003,#1004,#1005,#1006,#1007,#1008,
#1009,#1010,#1011,#1012,#1013,#1014,#1015,#1016,#1017,#1018,#1019,#1020,
#1021,#1022,#1023,#1024,#1025,#1026,#1027,#1028,#1029,#1030,#1031,#1032,
#1033,#1034,#1035,#1036,#1037,#1038,#1039,#1040,#1041,#1042,#1043,#1044,
#1045,#1046,#1047,#1048,#1049,#1050,#1051,#1052,#1053,#1054,#1055,#1056,
#1057,#1058,#1059));
#1061=DERIVED_UNIT_ELEMENT(#1063,1.);
#1062=DERIVED_UNIT_ELEMENT(#1802,-3.);
#1063=(
MASS_UNIT()
NAMED_UNIT(*)
SI_UNIT(.KILO.,.GRAM.)
);
#1064=DERIVED_UNIT((#1061,#1062));
#1065=MEASURE_REPRESENTATION_ITEM('density measure',
POSITIVE_RATIO_MEASURE(7850.),#1064);
#1066=PROPERTY_DEFINITION_REPRESENTATION(#1071,#1068);
#1067=PROPERTY_DEFINITION_REPRESENTATION(#1072,#1069);
#1068=REPRESENTATION('material name',(#1070),#1799);
#1069=REPRESENTATION('density',(#1065),#1799);
#1070=DESCRIPTIVE_REPRESENTATION_ITEM('\X2\94A2\X0\','\X2\94A2\X0\');
#1071=PROPERTY_DEFINITION('material property','material name',#1809);
#1072=PROPERTY_DEFINITION('material property','density of part',#1809);
#1073=AXIS2_PLACEMENT_3D('',#1494,#1179,#1180);
#1074=AXIS2_PLACEMENT_3D('',#1495,#1181,#1182);
#1075=AXIS2_PLACEMENT_3D('',#1497,#1183,#1184);
#1076=AXIS2_PLACEMENT_3D('',#1500,#1186,#1187);
#1077=AXIS2_PLACEMENT_3D('',#1501,#1188,#1189);
#1078=AXIS2_PLACEMENT_3D('',#1504,#1190,#1191);
#1079=AXIS2_PLACEMENT_3D('',#1508,#1193,#1194);
#1080=AXIS2_PLACEMENT_3D('',#1510,#1196,#1197);
#1081=AXIS2_PLACEMENT_3D('',#1512,#1198,#1199);
#1082=AXIS2_PLACEMENT_3D('',#1515,#1201,#1202);
#1083=AXIS2_PLACEMENT_3D('',#1516,#1203,#1204);
#1084=AXIS2_PLACEMENT_3D('',#1519,#1205,#1206);
#1085=AXIS2_PLACEMENT_3D('',#1523,#1208,#1209);
#1086=AXIS2_PLACEMENT_3D('',#1525,#1211,#1212);
#1087=AXIS2_PLACEMENT_3D('',#1527,#1213,#1214);
#1088=AXIS2_PLACEMENT_3D('',#1530,#1216,#1217);
#1089=AXIS2_PLACEMENT_3D('',#1531,#1218,#1219);
#1090=AXIS2_PLACEMENT_3D('',#1543,#1225,#1226);
#1091=AXIS2_PLACEMENT_3D('',#1555,#1232,#1233);
#1092=AXIS2_PLACEMENT_3D('',#1570,#1242,#1243);
#1093=AXIS2_PLACEMENT_3D('',#1575,#1245,#1246);
#1094=AXIS2_PLACEMENT_3D('',#1581,#1250,#1251);
#1095=AXIS2_PLACEMENT_3D('',#1586,#1253,#1254);
#1096=AXIS2_PLACEMENT_3D('',#1592,#1258,#1259);
#1097=AXIS2_PLACEMENT_3D('',#1598,#1263,#1264);
#1098=AXIS2_PLACEMENT_3D('',#1602,#1267,#1268);
#1099=AXIS2_PLACEMENT_3D('',#1603,#1269,#1270);
#1100=AXIS2_PLACEMENT_3D('',#1607,#1273,#1274);
#1101=AXIS2_PLACEMENT_3D('',#1608,#1275,#1276);
#1102=AXIS2_PLACEMENT_3D('',#1612,#1278,#1279);
#1103=AXIS2_PLACEMENT_3D('',#1618,#1283,#1284);
#1104=AXIS2_PLACEMENT_3D('',#1619,#1285,#1286);
#1105=AXIS2_PLACEMENT_3D('',#1624,#1291,#1292);
#1106=AXIS2_PLACEMENT_3D('',#1630,#1296,#1297);
#1107=AXIS2_PLACEMENT_3D('',#1634,#1300,#1301);
#1108=AXIS2_PLACEMENT_3D('',#1638,#1304,#1305);
#1109=AXIS2_PLACEMENT_3D('',#1644,#1308,#1309);
#1110=AXIS2_PLACEMENT_3D('',#1648,#1311,#1312);
#1111=AXIS2_PLACEMENT_3D('',#1652,#1314,#1315);
#1112=AXIS2_PLACEMENT_3D('',#1655,#1317,#1318);
#1113=AXIS2_PLACEMENT_3D('',#1656,#1319,#1320);
#1114=AXIS2_PLACEMENT_3D('',#1660,#1323,#1324);
#1115=AXIS2_PLACEMENT_3D('',#1666,#1328,#1329);
#1116=AXIS2_PLACEMENT_3D('',#1670,#1332,#1333);
#1117=AXIS2_PLACEMENT_3D('',#1671,#1334,#1335);
#1118=AXIS2_PLACEMENT_3D('',#1672,#1336,#1337);
#1119=AXIS2_PLACEMENT_3D('',#1673,#1338,#1339);
#1120=AXIS2_PLACEMENT_3D('',#1674,#1340,#1341);
#1121=AXIS2_PLACEMENT_3D('',#1675,#1342,#1343);
#1122=AXIS2_PLACEMENT_3D('',#1678,#1346,#1347);
#1123=AXIS2_PLACEMENT_3D('',#1679,#1348,#1349);
#1124=AXIS2_PLACEMENT_3D('',#1680,#1350,#1351);
#1125=AXIS2_PLACEMENT_3D('',#1681,#1352,#1353);
#1126=AXIS2_PLACEMENT_3D('',#1683,#1355,#1356);
#1127=AXIS2_PLACEMENT_3D('',#1685,#1358,#1359);
#1128=AXIS2_PLACEMENT_3D('',#1686,#1360,#1361);
#1129=AXIS2_PLACEMENT_3D('',#1687,#1362,#1363);
#1130=AXIS2_PLACEMENT_3D('',#1688,#1364,#1365);
#1131=AXIS2_PLACEMENT_3D('',#1689,#1366,#1367);
#1132=AXIS2_PLACEMENT_3D('',#1698,#1372,#1373);
#1133=AXIS2_PLACEMENT_3D('',#1700,#1374,#1375);
#1134=AXIS2_PLACEMENT_3D('',#1703,#1377,#1378);
#1135=AXIS2_PLACEMENT_3D('',#1704,#1379,#1380);
#1136=AXIS2_PLACEMENT_3D('',#1710,#1384,#1385);
#1137=AXIS2_PLACEMENT_3D('',#1718,#1389,#1390);
#1138=AXIS2_PLACEMENT_3D('',#1731,#1397,#1398);
#1139=AXIS2_PLACEMENT_3D('',#1739,#1402,#1403);
#1140=AXIS2_PLACEMENT_3D('',#1740,#1404,#1405);
#1141=AXIS2_PLACEMENT_3D('',#1741,#1406,#1407);
#1142=AXIS2_PLACEMENT_3D('',#1742,#1408,#1409);
#1143=AXIS2_PLACEMENT_3D('',#1743,#1410,#1411);
#1144=AXIS2_PLACEMENT_3D('',#1744,#1412,#1413);
#1145=AXIS2_PLACEMENT_3D('',#1745,#1414,#1415);
#1146=AXIS2_PLACEMENT_3D('',#1746,#1416,#1417);
#1147=AXIS2_PLACEMENT_3D('',#1747,#1418,#1419);
#1148=AXIS2_PLACEMENT_3D('',#1748,#1420,#1421);
#1149=AXIS2_PLACEMENT_3D('',#1749,#1422,#1423);
#1150=AXIS2_PLACEMENT_3D('',#1750,#1424,#1425);
#1151=AXIS2_PLACEMENT_3D('',#1751,#1426,#1427);
#1152=AXIS2_PLACEMENT_3D('',#1752,#1428,#1429);
#1153=AXIS2_PLACEMENT_3D('',#1753,#1430,#1431);
#1154=AXIS2_PLACEMENT_3D('',#1754,#1432,#1433);
#1155=AXIS2_PLACEMENT_3D('',#1755,#1434,#1435);
#1156=AXIS2_PLACEMENT_3D('',#1756,#1436,#1437);
#1157=AXIS2_PLACEMENT_3D('',#1757,#1438,#1439);
#1158=AXIS2_PLACEMENT_3D('',#1758,#1440,#1441);
#1159=AXIS2_PLACEMENT_3D('',#1759,#1442,#1443);
#1160=AXIS2_PLACEMENT_3D('',#1760,#1444,#1445);
#1161=AXIS2_PLACEMENT_3D('',#1761,#1446,#1447);
#1162=AXIS2_PLACEMENT_3D('',#1762,#1448,#1449);
#1163=AXIS2_PLACEMENT_3D('',#1763,#1450,#1451);
#1164=AXIS2_PLACEMENT_3D('',#1764,#1452,#1453);
#1165=AXIS2_PLACEMENT_3D('',#1765,#1454,#1455);
#1166=AXIS2_PLACEMENT_3D('',#1766,#1456,#1457);
#1167=AXIS2_PLACEMENT_3D('',#1767,#1458,#1459);
#1168=AXIS2_PLACEMENT_3D('',#1768,#1460,#1461);
#1169=AXIS2_PLACEMENT_3D('',#1769,#1462,#1463);
#1170=AXIS2_PLACEMENT_3D('',#1770,#1464,#1465);
#1171=AXIS2_PLACEMENT_3D('',#1771,#1466,#1467);
#1172=AXIS2_PLACEMENT_3D('',#1772,#1468,#1469);
#1173=AXIS2_PLACEMENT_3D('',#1785,#1476,#1477);
#1174=AXIS2_PLACEMENT_3D('',#1788,#1480,#1481);
#1175=AXIS2_PLACEMENT_3D('',#1790,#1483,#1484);
#1176=AXIS2_PLACEMENT_3D('',#1792,#1486,#1487);
#1177=AXIS2_PLACEMENT_3D('',#1794,#1489,#1490);
#1178=AXIS2_PLACEMENT_3D('',#1796,#1492,#1493);
#1179=DIRECTION('axis',(0.,0.,1.));
#1180=DIRECTION('refdir',(1.,0.,0.));
#1181=DIRECTION('center_axis',(-1.,0.,-2.86731153054018E-16));
#1182=DIRECTION('ref_axis',(-2.86731153054018E-16,0.,1.));
#1183=DIRECTION('center_axis',(1.,0.,2.86731153054018E-16));
#1184=DIRECTION('ref_axis',(-2.86731153054018E-16,0.,1.));
#1185=DIRECTION('',(-1.,0.,-2.86731153054018E-16));
#1186=DIRECTION('center_axis',(1.,0.,2.86731153054018E-16));
#1187=DIRECTION('ref_axis',(-2.86731153054018E-16,0.,1.));
#1188=DIRECTION('center_axis',(-1.,0.,-2.86731153054018E-16));
#1189=DIRECTION('ref_axis',(1.98069319002192E-17,0.997611233593746,-0.0690784091273396));
#1190=DIRECTION('center_axis',(1.,0.,2.86731153054018E-16));
#1191=DIRECTION('ref_axis',(2.86731153054018E-16,0.,-1.));
#1192=DIRECTION('',(-1.,0.,-2.86731153054018E-16));
#1193=DIRECTION('center_axis',(1.,0.,2.86731153054018E-16));
#1194=DIRECTION('ref_axis',(2.86731153054018E-16,0.,-1.));
#1195=DIRECTION('',(-1.,0.,-2.86731153054018E-16));
#1196=DIRECTION('center_axis',(1.,0.,-2.86731153054018E-16));
#1197=DIRECTION('ref_axis',(-2.86731153054018E-16,0.,-1.));
#1198=DIRECTION('center_axis',(-1.,0.,2.86731153054018E-16));
#1199=DIRECTION('ref_axis',(-2.86731153054018E-16,0.,-1.));
#1200=DIRECTION('',(1.,0.,-2.86731153054018E-16));
#1201=DIRECTION('center_axis',(-1.,0.,2.86731153054018E-16));
#1202=DIRECTION('ref_axis',(-2.86731153054018E-16,0.,-1.));
#1203=DIRECTION('center_axis',(1.,0.,-2.86731153054018E-16));
#1204=DIRECTION('ref_axis',(-1.98069319002193E-17,0.997611233593746,-0.0690784091273399));
#1205=DIRECTION('center_axis',(1.,0.,-2.86731153054018E-16));
#1206=DIRECTION('ref_axis',(-2.86731153054018E-16,0.,-1.));
#1207=DIRECTION('',(1.,0.,-2.86731153054018E-16));
#1208=DIRECTION('center_axis',(1.,0.,-2.86731153054018E-16));
#1209=DIRECTION('ref_axis',(-2.86731153054018E-16,0.,-1.));
#1210=DIRECTION('',(1.,0.,-2.86731153054018E-16));
#1211=DIRECTION('center_axis',(-1.,0.,1.43365576527009E-16));
#1212=DIRECTION('ref_axis',(1.43365576527009E-16,0.,1.));
#1213=DIRECTION('center_axis',(-1.,0.,0.));
#1214=DIRECTION('ref_axis',(0.,0.,-1.));
#1215=DIRECTION('',(-1.,0.,1.43365576527009E-16));
#1216=DIRECTION('center_axis',(-1.,0.,1.43365576527009E-16));
#1217=DIRECTION('ref_axis',(1.43365576527009E-16,0.,1.));
#1218=DIRECTION('center_axis',(0.,1.,0.));
#1219=DIRECTION('ref_axis',(0.,0.,1.));
#1220=DIRECTION('',(-2.86731153054018E-16,0.,1.));
#1221=DIRECTION('',(-1.,0.,1.43365576527009E-16));
#1222=DIRECTION('',(1.43365576527009E-16,0.,1.));
#1223=DIRECTION('',(1.,0.,0.));
#1224=DIRECTION('',(0.,0.,1.));
#1225=DIRECTION('center_axis',(0.,-1.,0.));
#1226=DIRECTION('ref_axis',(0.,0.,1.));
#1227=DIRECTION('',(-1.,0.,0.));
#1228=DIRECTION('',(1.43365576527009E-16,0.,1.));
#1229=DIRECTION('',(-1.,0.,0.));
#1230=DIRECTION('',(-2.86731153054018E-16,0.,-1.));
#1231=DIRECTION('',(-1.,0.,0.));
#1232=DIRECTION('center_axis',(0.,-1.,0.));
#1233=DIRECTION('ref_axis',(0.,0.,1.));
#1234=DIRECTION('',(2.31296463463574E-15,0.,-1.));
#1235=DIRECTION('',(1.,0.,0.));
#1236=DIRECTION('',(-2.86731153054018E-16,0.,-1.));
#1237=DIRECTION('',(-1.,0.,2.86731153054018E-16));
#1238=DIRECTION('',(2.86731153054018E-16,0.,1.));
#1239=DIRECTION('',(0.,0.,-1.));
#1240=DIRECTION('',(-1.,0.,0.));
#1241=DIRECTION('',(0.,0.,-1.));
#1242=DIRECTION('center_axis',(0.,0.,1.));
#1243=DIRECTION('ref_axis',(1.,0.,0.));
#1244=DIRECTION('',(-1.,0.,0.));
#1245=DIRECTION('center_axis',(0.,0.,-1.));
#1246=DIRECTION('ref_axis',(1.,0.,0.));
#1247=DIRECTION('',(0.,-1.,0.));
#1248=DIRECTION('',(-1.,0.,1.43365576527009E-16));
#1249=DIRECTION('',(0.,-1.,0.));
#1250=DIRECTION('center_axis',(0.,0.,1.));
#1251=DIRECTION('ref_axis',(1.,0.,0.));
#1252=DIRECTION('',(0.,-1.,0.));
#1253=DIRECTION('center_axis',(0.,0.,-1.));
#1254=DIRECTION('ref_axis',(1.,0.,0.));
#1255=DIRECTION('',(-1.,0.,0.));
#1256=DIRECTION('',(0.,-1.,0.));
#1257=DIRECTION('',(-1.,0.,2.86731153054018E-16));
#1258=DIRECTION('center_axis',(0.,0.,1.));
#1259=DIRECTION('ref_axis',(1.,0.,0.));
#1260=DIRECTION('',(0.,-1.,0.));
#1261=DIRECTION('',(0.,-1.,0.));
#1262=DIRECTION('',(-1.,0.,0.));
#1263=DIRECTION('center_axis',(-1.,0.,2.86731153054018E-16));
#1264=DIRECTION('ref_axis',(2.86731153054018E-16,0.,1.));
#1265=DIRECTION('',(0.,-1.,0.));
#1266=DIRECTION('',(-2.86731153054018E-16,0.,-1.));
#1267=DIRECTION('center_axis',(1.,0.,-2.86731153054018E-16));
#1268=DIRECTION('ref_axis',(2.86731153054018E-16,0.,1.));
#1269=DIRECTION('center_axis',(1.,0.,-1.43365576527009E-16));
#1270=DIRECTION('ref_axis',(-1.43365576527009E-16,0.,-1.));
#1271=DIRECTION('',(1.43365576527009E-16,0.,1.));
#1272=DIRECTION('',(0.,-1.,0.));
#1273=DIRECTION('center_axis',(-1.,0.,1.43365576527009E-16));
#1274=DIRECTION('ref_axis',(-1.43365576527009E-16,0.,-1.));
#1275=DIRECTION('center_axis',(0.,0.,-1.));
#1276=DIRECTION('ref_axis',(-1.,0.,0.));
#1277=DIRECTION('',(1.,0.,0.));
#1278=DIRECTION('center_axis',(0.,0.,1.));
#1279=DIRECTION('ref_axis',(-1.,0.,0.));
#1280=DIRECTION('',(0.,1.,0.));
#1281=DIRECTION('',(1.,0.,0.));
#1282=DIRECTION('',(0.,1.,0.));
#1283=DIRECTION('center_axis',(0.,0.,1.));
#1284=DIRECTION('ref_axis',(-1.,0.,0.));
#1285=DIRECTION('center_axis',(0.,1.,0.));
#1286=DIRECTION('ref_axis',(0.,0.,1.));
#1287=DIRECTION('',(2.86731153054018E-16,0.,1.));
#1288=DIRECTION('',(-1.43365576527009E-16,0.,-1.));
#1289=DIRECTION('',(-1.,0.,-2.86731153054018E-16));
#1290=DIRECTION('',(1.,0.,-2.86731153054018E-16));
#1291=DIRECTION('center_axis',(-1.,0.,2.86731153054018E-16));
#1292=DIRECTION('ref_axis',(2.86731153054018E-16,0.,1.));
#1293=DIRECTION('',(-2.86731153054018E-16,0.,-1.));
#1294=DIRECTION('',(0.,-1.,0.));
#1295=DIRECTION('',(0.,-1.,0.));
#1296=DIRECTION('center_axis',(0.,0.,1.));
#1297=DIRECTION('ref_axis',(1.,0.,0.));
#1298=DIRECTION('',(-1.,0.,0.));
#1299=DIRECTION('',(0.,-1.,0.));
#1300=DIRECTION('center_axis',(1.,0.,-1.43365576527009E-16));
#1301=DIRECTION('ref_axis',(-1.43365576527009E-16,0.,-1.));
#1302=DIRECTION('',(1.43365576527009E-16,0.,1.));
#1303=DIRECTION('',(0.,-1.,0.));
#1304=DIRECTION('center_axis',(0.,1.,0.));
#1305=DIRECTION('ref_axis',(0.,0.,1.));
#1306=DIRECTION('',(1.,0.,0.));
#1307=DIRECTION('',(1.,0.,-1.43365576527009E-16));
#1308=DIRECTION('center_axis',(0.,-1.,0.));
#1309=DIRECTION('ref_axis',(0.,0.,1.));
#1310=DIRECTION('',(1.43365576527009E-16,0.,1.));
#1311=DIRECTION('center_axis',(0.,-1.,0.));
#1312=DIRECTION('ref_axis',(0.,0.,1.));
#1313=DIRECTION('',(-1.,0.,1.43365576527009E-16));
#1314=DIRECTION('center_axis',(0.,-1.,0.));
#1315=DIRECTION('ref_axis',(0.,0.,1.));
#1316=DIRECTION('',(-1.43365576527009E-16,0.,-1.));
#1317=DIRECTION('center_axis',(0.,-1.,0.));
#1318=DIRECTION('ref_axis',(0.,0.,1.));
#1319=DIRECTION('center_axis',(-1.,0.,0.));
#1320=DIRECTION('ref_axis',(0.,0.,1.));
#1321=DIRECTION('',(0.,0.,1.));
#1322=DIRECTION('',(0.,1.,0.));
#1323=DIRECTION('center_axis',(0.,0.,-1.));
#1324=DIRECTION('ref_axis',(-1.,0.,0.));
#1325=DIRECTION('',(0.,-1.,0.));
#1326=DIRECTION('',(-1.,0.,0.));
#1327=DIRECTION('',(0.,1.,0.));
#1328=DIRECTION('center_axis',(1.,0.,2.31296463463574E-15));
#1329=DIRECTION('ref_axis',(2.31296463463574E-15,0.,-1.));
#1330=DIRECTION('',(0.,-1.,0.));
#1331=DIRECTION('',(2.31296463463574E-15,0.,-1.));
#1332=DIRECTION('center_axis',(0.,1.,0.));
#1333=DIRECTION('ref_axis',(0.,0.,1.));
#1334=DIRECTION('center_axis',(0.,1.,0.));
#1335=DIRECTION('ref_axis',(0.,0.,1.));
#1336=DIRECTION('center_axis',(0.,1.,0.));
#1337=DIRECTION('ref_axis',(0.,0.,1.));
#1338=DIRECTION('center_axis',(0.,-1.,0.));
#1339=DIRECTION('ref_axis',(0.,0.,-1.));
#1340=DIRECTION('center_axis',(0.,-1.,0.));
#1341=DIRECTION('ref_axis',(0.,0.,-1.));
#1342=DIRECTION('center_axis',(-2.48316462601184E-16,-0.499999999999995,
-0.866025403784442));
#1343=DIRECTION('ref_axis',(0.,0.866025403784442,-0.499999999999995));
#1344=DIRECTION('',(0.,0.866025403784442,-0.499999999999995));
#1345=DIRECTION('',(0.,0.866025403784442,-0.499999999999995));
#1346=DIRECTION('center_axis',(1.,0.,-2.86731153054018E-16));
#1347=DIRECTION('ref_axis',(-2.86731153054018E-16,0.,-1.));
#1348=DIRECTION('center_axis',(1.,0.,-2.86731153054018E-16));
#1349=DIRECTION('ref_axis',(-2.86731153054018E-16,0.,-1.));
#1350=DIRECTION('center_axis',(-1.,0.,2.86731153054018E-16));
#1351=DIRECTION('ref_axis',(2.86731153054018E-16,0.,1.));
#1352=DIRECTION('center_axis',(-1.,0.,-2.86731153054018E-16));
#1353=DIRECTION('ref_axis',(2.86731153054018E-16,0.,-1.));
#1354=DIRECTION('',(0.,0.866025403784442,-0.499999999999995));
#1355=DIRECTION('center_axis',(-1.,0.,-2.86731153054018E-16));
#1356=DIRECTION('ref_axis',(2.86731153054018E-16,0.,-1.));
#1357=DIRECTION('',(0.,0.866025403784442,-0.499999999999995));
#1358=DIRECTION('center_axis',(1.,0.,2.86731153054018E-16));
#1359=DIRECTION('ref_axis',(-1.43365576527009E-16,0.,-1.));
#1360=DIRECTION('center_axis',(-2.48316462601184E-16,0.499999999999995,
0.866025403784442));
#1361=DIRECTION('ref_axis',(0.,-0.866025403784442,0.499999999999995));
#1362=DIRECTION('center_axis',(-1.,0.,2.86731153054018E-16));
#1363=DIRECTION('ref_axis',(2.86731153054018E-16,0.,1.));
#1364=DIRECTION('center_axis',(1.,0.,-1.43365576527009E-16));
#1365=DIRECTION('ref_axis',(-1.43365576527009E-16,0.,-1.));
#1366=DIRECTION('center_axis',(-1.43365576527009E-16,0.,-1.));
#1367=DIRECTION('ref_axis',(-1.,0.,1.43365576527009E-16));
#1368=DIRECTION('',(0.,-1.,0.));
#1369=DIRECTION('',(-1.,0.,1.43365576527009E-16));
#1370=DIRECTION('',(0.,1.,0.));
#1371=DIRECTION('',(-1.,0.,1.43365576527009E-16));
#1372=DIRECTION('center_axis',(-1.,0.,1.43365576527009E-16));
#1373=DIRECTION('ref_axis',(1.43365576527009E-16,0.,1.));
#1374=DIRECTION('center_axis',(1.,0.,-1.43365576527009E-16));
#1375=DIRECTION('ref_axis',(-1.43365576527009E-16,0.,-1.));
#1376=DIRECTION('',(-1.,0.,1.43365576527009E-16));
#1377=DIRECTION('center_axis',(-1.,0.,1.43365576527009E-16));
#1378=DIRECTION('ref_axis',(-1.43365576527009E-16,0.,-1.));
#1379=DIRECTION('center_axis',(1.43365576527009E-16,7.95744713750829E-17,
1.));
#1380=DIRECTION('ref_axis',(1.,0.,-1.43365576527009E-16));
#1381=DIRECTION('',(1.14082399655207E-32,-1.,7.95744713750829E-17));
#1382=DIRECTION('',(1.,0.,-1.43365576527009E-16));
#1383=DIRECTION('',(-1.14082399655207E-32,1.,-7.95744713750829E-17));
#1384=DIRECTION('center_axis',(1.,0.,-1.43365576527009E-16));
#1385=DIRECTION('ref_axis',(-1.43365576527009E-16,0.,-1.));
#1386=DIRECTION('',(1.14082399655207E-32,-1.,7.95744713750829E-17));
#1387=DIRECTION('',(-1.43365576527009E-16,0.,-1.));
#1388=DIRECTION('',(0.,1.,0.));
#1389=DIRECTION('center_axis',(1.,0.,-1.43365576527009E-16));
#1390=DIRECTION('ref_axis',(-1.43365576527009E-16,0.,-1.));
#1391=DIRECTION('',(0.,-0.866025403784439,0.5));
#1392=DIRECTION('',(0.,0.,1.));
#1393=DIRECTION('',(1.33539075443303E-15,0.866025403784439,0.5));
#1394=DIRECTION('',(-1.33539075443303E-15,0.866025403784439,-0.5));
#1395=DIRECTION('',(0.,0.,-1.));
#1396=DIRECTION('',(0.,-0.866025403784439,-0.499999999999999));
#1397=DIRECTION('center_axis',(1.,0.,-1.43365576527009E-16));
#1398=DIRECTION('ref_axis',(-1.43365576527009E-16,0.,-1.));
#1399=DIRECTION('',(0.,-1.,0.));
#1400=DIRECTION('',(1.43365576527009E-16,0.,1.));
#1401=DIRECTION('',(-1.14082399655207E-32,1.,-7.95744713750829E-17));
#1402=DIRECTION('center_axis',(-1.,0.,1.43365576527009E-16));
#1403=DIRECTION('ref_axis',(-1.43365576527009E-16,0.,-1.));
#1404=DIRECTION('center_axis',(-2.86731153054018E-16,0.,-1.));
#1405=DIRECTION('ref_axis',(-1.,0.,2.86731153054018E-16));
#1406=DIRECTION('center_axis',(1.43365576527009E-16,0.,1.));
#1407=DIRECTION('ref_axis',(1.,0.,-1.43365576527009E-16));
#1408=DIRECTION('center_axis',(0.,1.,0.));
#1409=DIRECTION('ref_axis',(0.,0.,1.));
#1410=DIRECTION('center_axis',(0.,1.,0.));
#1411=DIRECTION('ref_axis',(0.,0.,1.));
#1412=DIRECTION('center_axis',(0.,1.,0.));
#1413=DIRECTION('ref_axis',(0.,0.,1.));
#1414=DIRECTION('center_axis',(1.,0.,-1.43365576527009E-16));
#1415=DIRECTION('ref_axis',(0.,0.,-1.));
#1416=DIRECTION('center_axis',(0.,-1.,0.));
#1417=DIRECTION('ref_axis',(0.,0.,-1.));
#1418=DIRECTION('center_axis',(1.14082399655207E-32,-1.,7.95744713750829E-17));
#1419=DIRECTION('ref_axis',(9.07804664576405E-49,-7.95744713750829E-17,
-1.));
#1420=DIRECTION('center_axis',(0.,1.,0.));
#1421=DIRECTION('ref_axis',(0.,0.,1.));
#1422=DIRECTION('center_axis',(0.,-1.,0.));
#1423=DIRECTION('ref_axis',(0.,0.,-1.));
#1424=DIRECTION('center_axis',(0.,1.,0.));
#1425=DIRECTION('ref_axis',(0.,0.,1.));
#1426=DIRECTION('center_axis',(0.,1.,0.));
#1427=DIRECTION('ref_axis',(0.,0.,1.));
#1428=DIRECTION('center_axis',(1.,0.,-1.43365576527009E-16));
#1429=DIRECTION('ref_axis',(0.,0.,-1.));
#1430=DIRECTION('center_axis',(0.,-1.,0.));
#1431=DIRECTION('ref_axis',(0.,0.,-1.));
#1432=DIRECTION('center_axis',(-1.14082399655207E-32,1.,-7.95744713750829E-17));
#1433=DIRECTION('ref_axis',(-9.07804664576405E-49,7.95744713750829E-17,
1.));
#1434=DIRECTION('center_axis',(0.,1.,0.));
#1435=DIRECTION('ref_axis',(0.,0.,1.));
#1436=DIRECTION('center_axis',(0.,1.,0.));
#1437=DIRECTION('ref_axis',(0.,0.,1.));
#1438=DIRECTION('center_axis',(-1.,0.,0.));
#1439=DIRECTION('ref_axis',(0.,0.,1.));
#1440=DIRECTION('center_axis',(0.,0.,1.));
#1441=DIRECTION('ref_axis',(1.,0.,0.));
#1442=DIRECTION('center_axis',(1.43365576527009E-16,0.,1.));
#1443=DIRECTION('ref_axis',(1.,0.,-1.43365576527009E-16));
#1444=DIRECTION('center_axis',(0.,0.,1.));
#1445=DIRECTION('ref_axis',(1.,0.,0.));
#1446=DIRECTION('center_axis',(1.,0.,-1.43365576527009E-16));
#1447=DIRECTION('ref_axis',(-1.43365576527009E-16,0.,-1.));
#1448=DIRECTION('center_axis',(-1.,0.,0.));
#1449=DIRECTION('ref_axis',(0.,0.,1.));
#1450=DIRECTION('center_axis',(0.,1.,0.));
#1451=DIRECTION('ref_axis',(0.,0.,1.));
#1452=DIRECTION('center_axis',(-1.,0.,0.));
#1453=DIRECTION('ref_axis',(0.,0.,1.));
#1454=DIRECTION('center_axis',(0.,1.,0.));
#1455=DIRECTION('ref_axis',(0.,0.,1.));
#1456=DIRECTION('center_axis',(0.,0.,1.));
#1457=DIRECTION('ref_axis',(1.,0.,0.));
#1458=DIRECTION('center_axis',(1.,0.,-1.43365576527009E-16));
#1459=DIRECTION('ref_axis',(-1.43365576527009E-16,0.,-1.));
#1460=DIRECTION('center_axis',(-1.,0.,0.));
#1461=DIRECTION('ref_axis',(0.,0.,1.));
#1462=DIRECTION('center_axis',(-1.43365576527009E-16,0.,-1.));
#1463=DIRECTION('ref_axis',(-1.,0.,1.43365576527009E-16));
#1464=DIRECTION('center_axis',(0.,0.,1.));
#1465=DIRECTION('ref_axis',(1.,0.,0.));
#1466=DIRECTION('center_axis',(0.,1.,0.));
#1467=DIRECTION('ref_axis',(0.,0.,1.));
#1468=DIRECTION('center_axis',(1.,0.,0.));
#1469=DIRECTION('ref_axis',(0.,0.,-1.));
#1470=DIRECTION('',(0.,-0.866025403784439,0.5));
#1471=DIRECTION('',(0.,-0.866025403784439,-0.499999999999999));
#1472=DIRECTION('',(0.,0.,-1.));
#1473=DIRECTION('',(-1.33539075443303E-15,0.866025403784439,-0.5));
#1474=DIRECTION('',(1.33539075443303E-15,0.866025403784439,0.5));
#1475=DIRECTION('',(0.,0.,1.));
#1476=DIRECTION('center_axis',(1.24158231300592E-16,0.5,0.866025403784439));
#1477=DIRECTION('ref_axis',(-6.16297582203915E-33,-0.866025403784439,0.5));
#1478=DIRECTION('',(1.,0.,-1.43365576527009E-16));
#1479=DIRECTION('',(1.,0.,-1.43365576527009E-16));
#1480=DIRECTION('center_axis',(0.,1.,0.));
#1481=DIRECTION('ref_axis',(0.,0.,1.));
#1482=DIRECTION('',(1.,0.,-1.43365576527009E-16));
#1483=DIRECTION('center_axis',(-1.24158231300592E-16,0.5,-0.866025403784439));
#1484=DIRECTION('ref_axis',(6.16297582203915E-33,0.866025403784439,0.5));
#1485=DIRECTION('',(1.,0.,-1.43365576527009E-16));
#1486=DIRECTION('center_axis',(-1.24158231300592E-16,-0.5,-0.866025403784439));
#1487=DIRECTION('ref_axis',(-6.16297582203915E-33,0.866025403784439,-0.5));
#1488=DIRECTION('',(1.,0.,-1.43365576527009E-16));
#1489=DIRECTION('center_axis',(0.,-1.,0.));
#1490=DIRECTION('ref_axis',(0.,0.,-1.));
#1491=DIRECTION('',(1.,0.,-1.43365576527009E-16));
#1492=DIRECTION('center_axis',(1.24158231300592E-16,-0.499999999999999,
0.866025403784439));
#1493=DIRECTION('ref_axis',(-6.16297582203915E-33,-0.866025403784439,-0.499999999999999));
#1494=CARTESIAN_POINT('',(0.,0.,0.));
#1495=CARTESIAN_POINT('Origin',(-17.,6.93966667140737,-25.3198670748751));
#1496=CARTESIAN_POINT('',(-17.,6.93966667140737,-26.6198670748751));
#1497=CARTESIAN_POINT('Origin',(-17.,6.93966667140737,-25.3198670748751));
#1498=CARTESIAN_POINT('',(-22.,6.93966667140737,-26.6198670748751));
#1499=CARTESIAN_POINT('',(-17.,6.93966667140737,-26.6198670748751));
#1500=CARTESIAN_POINT('Origin',(-22.,6.93966667140737,-25.3198670748751));
#1501=CARTESIAN_POINT('Origin',(-17.,6.93966667140737,-25.3198670748751));
#1502=CARTESIAN_POINT('',(-17.,5.68966667140725,-27.4849305843362));
#1503=CARTESIAN_POINT('',(-17.,6.,-23.0031826883765));
#1504=CARTESIAN_POINT('Origin',(-17.,6.93966667140737,-25.3198670748751));
#1505=CARTESIAN_POINT('',(-22.,5.68966667140725,-27.4849305843362));
#1506=CARTESIAN_POINT('',(-17.,5.68966667140725,-27.4849305843362));
#1507=CARTESIAN_POINT('',(-22.,6.,-23.0031826883765));
#1508=CARTESIAN_POINT('Origin',(-22.,6.93966667140737,-25.3198670748751));
#1509=CARTESIAN_POINT('',(-17.,6.00000000000002,-23.0031826883765));
#1510=CARTESIAN_POINT('Origin',(17.,6.93966667140737,-25.3198670748751));
#1511=CARTESIAN_POINT('',(17.,6.93966667140737,-24.0198670748751));
#1512=CARTESIAN_POINT('Origin',(17.,6.93966667140737,-25.3198670748751));
#1513=CARTESIAN_POINT('',(22.,6.93966667140737,-24.0198670748751));
#1514=CARTESIAN_POINT('',(17.,6.93966667140737,-24.0198670748751));
#1515=CARTESIAN_POINT('Origin',(22.,6.93966667140737,-25.3198670748751));
#1516=CARTESIAN_POINT('Origin',(17.,6.93966667140737,-25.3198670748751));
#1517=CARTESIAN_POINT('',(17.,5.68966667140725,-27.4849305843362));
#1518=CARTESIAN_POINT('',(17.,6.,-23.0031826883765));
#1519=CARTESIAN_POINT('Origin',(17.,6.93966667140737,-25.3198670748751));
#1520=CARTESIAN_POINT('',(22.,6.00000000000002,-23.0031826883765));
#1521=CARTESIAN_POINT('',(17.,6.00000000000002,-23.0031826883765));
#1522=CARTESIAN_POINT('',(22.,5.68966667140725,-27.4849305843362));
#1523=CARTESIAN_POINT('Origin',(22.,6.93966667140737,-25.3198670748751));
#1524=CARTESIAN_POINT('',(17.,5.68966667140725,-27.4849305843362));
#1525=CARTESIAN_POINT('Origin',(-20.6,13.9,-9.67562595462501));
#1526=CARTESIAN_POINT('',(-22.6,13.9,-10.675625954625));
#1527=CARTESIAN_POINT('Origin',(-22.6,13.9,-9.67562595462501));
#1528=CARTESIAN_POINT('',(-24.2,13.9,-10.675625954625));
#1529=CARTESIAN_POINT('',(-20.6,13.9,-10.675625954625));
#1530=CARTESIAN_POINT('Origin',(-24.2,13.9,-9.67562595462501));
#1531=CARTESIAN_POINT('Origin',(0.,6.,0.));
#1532=CARTESIAN_POINT('',(-22.,6.,-22.4708274916741));
#1533=CARTESIAN_POINT('',(-22.,6.,-12.6599335374376));
#1534=CARTESIAN_POINT('',(-35.,6.,-22.4708274916741));
#1535=CARTESIAN_POINT('',(-35.,6.,-22.4708274916741));
#1536=CARTESIAN_POINT('',(-35.,6.,24.2));
#1537=CARTESIAN_POINT('',(-35.,6.,-24.2));
#1538=CARTESIAN_POINT('',(-34.,6.,24.2));
#1539=CARTESIAN_POINT('',(-35.,6.,24.2));
#1540=CARTESIAN_POINT('',(-34.,6.,21.7));
#1541=CARTESIAN_POINT('',(-34.,6.,21.2));
#1542=CARTESIAN_POINT('',(-33.5,6.,21.2));
#1543=CARTESIAN_POINT('Origin',(-33.5,6.,21.7));
#1544=CARTESIAN_POINT('',(-32.,6.,21.2));
#1545=CARTESIAN_POINT('',(-34.,6.,21.2));
#1546=CARTESIAN_POINT('',(-32.,6.,-21.2));
#1547=CARTESIAN_POINT('',(-32.,6.,-24.2));
#1548=CARTESIAN_POINT('',(32.,6.,-21.2));
#1549=CARTESIAN_POINT('',(-35.,6.,-21.2));
#1550=CARTESIAN_POINT('',(32.,6.,21.2));
#1551=CARTESIAN_POINT('',(32.,6.,-24.2));
#1552=CARTESIAN_POINT('',(33.5,6.,21.2));
#1553=CARTESIAN_POINT('',(-34.,6.,21.2));
#1554=CARTESIAN_POINT('',(34.,6.,21.7));
#1555=CARTESIAN_POINT('Origin',(33.5,6.,21.7));
#1556=CARTESIAN_POINT('',(34.,6.,24.2));
#1557=CARTESIAN_POINT('',(34.,6.,21.2));
#1558=CARTESIAN_POINT('',(35.,6.,24.2));
#1559=CARTESIAN_POINT('',(-35.,6.,24.2));
#1560=CARTESIAN_POINT('',(35.,6.,-22.4708274916741));
#1561=CARTESIAN_POINT('',(35.,6.,-24.2));
#1562=CARTESIAN_POINT('',(22.,6.,-22.4708274916741));
#1563=CARTESIAN_POINT('',(35.,6.,-22.4708274916741));
#1564=CARTESIAN_POINT('',(22.,6.,-12.6599335374376));
#1565=CARTESIAN_POINT('',(17.,6.,-24.2));
#1566=CARTESIAN_POINT('',(17.,6.,-23.0031826883764));
#1567=CARTESIAN_POINT('',(-17.,6.,-24.2));
#1568=CARTESIAN_POINT('',(-35.,6.,-24.2));
#1569=CARTESIAN_POINT('',(-17.,6.,-23.0031826883764));
#1570=CARTESIAN_POINT('Origin',(-35.,6.,-24.2));
#1571=CARTESIAN_POINT('',(-22.,0.,-24.2));
#1572=CARTESIAN_POINT('',(-33.,0.,-24.2));
#1573=CARTESIAN_POINT('',(-35.,0.,-24.2));
#1574=CARTESIAN_POINT('',(-35.,2.,-24.2));
#1575=CARTESIAN_POINT('Origin',(-33.,2.,-24.2));
#1576=CARTESIAN_POINT('',(-35.,4.15652137613228,-24.2000000000001));
#1577=CARTESIAN_POINT('',(-35.,6.,-24.2));
#1578=CARTESIAN_POINT('',(-22.,4.15652137613228,-24.2000000000001));
#1579=CARTESIAN_POINT('',(-35.,4.15652137613251,-24.2));
#1580=CARTESIAN_POINT('',(-22.,6.,-24.2));
#1581=CARTESIAN_POINT('Origin',(-35.,6.,-24.2));
#1582=CARTESIAN_POINT('',(35.,4.15652137613228,-24.2000000000001));
#1583=CARTESIAN_POINT('',(35.,2.,-24.2));
#1584=CARTESIAN_POINT('',(35.,6.,-24.2));
#1585=CARTESIAN_POINT('',(33.,0.,-24.2));
#1586=CARTESIAN_POINT('Origin',(33.,2.,-24.2));
#1587=CARTESIAN_POINT('',(22.,0.,-24.2));
#1588=CARTESIAN_POINT('',(-35.,0.,-24.2));
#1589=CARTESIAN_POINT('',(22.,4.15652137613228,-24.2000000000001));
#1590=CARTESIAN_POINT('',(22.,6.,-24.2));
#1591=CARTESIAN_POINT('',(35.,4.15652137613252,-24.2));
#1592=CARTESIAN_POINT('Origin',(-35.,6.,-24.2));
#1593=CARTESIAN_POINT('',(-17.,0.,-24.2));
#1594=CARTESIAN_POINT('',(-17.,6.,-24.2));
#1595=CARTESIAN_POINT('',(17.,0.,-24.2));
#1596=CARTESIAN_POINT('',(17.,6.,-24.2));
#1597=CARTESIAN_POINT('',(-35.,0.,-24.2));
#1598=CARTESIAN_POINT('Origin',(35.,6.,-24.2));
#1599=CARTESIAN_POINT('',(35.,2.,24.2));
#1600=CARTESIAN_POINT('',(35.,6.,24.2));
#1601=CARTESIAN_POINT('',(35.,2.,-24.2));
#1602=CARTESIAN_POINT('Origin',(35.,6.93966667140737,-25.3198670748751));
#1603=CARTESIAN_POINT('Origin',(-35.,6.,-24.2));
#1604=CARTESIAN_POINT('',(-35.,2.,24.2));
#1605=CARTESIAN_POINT('',(-35.,2.,-24.2));
#1606=CARTESIAN_POINT('',(-35.,6.,24.2));
#1607=CARTESIAN_POINT('Origin',(-35.,6.93966667140737,-25.3198670748751));
#1608=CARTESIAN_POINT('Origin',(-35.,6.,24.2));
#1609=CARTESIAN_POINT('',(-33.,0.,24.2));
#1610=CARTESIAN_POINT('',(33.,0.,24.2));
#1611=CARTESIAN_POINT('',(-35.,0.,24.2));
#1612=CARTESIAN_POINT('Origin',(33.,2.,24.2));
#1613=CARTESIAN_POINT('',(34.,1.,24.2));
#1614=CARTESIAN_POINT('',(34.,1.,24.2));
#1615=CARTESIAN_POINT('',(-34.,1.,24.2));
#1616=CARTESIAN_POINT('',(-34.,1.,24.2));
#1617=CARTESIAN_POINT('',(-34.,1.,24.2));
#1618=CARTESIAN_POINT('Origin',(-33.,2.,24.2));
#1619=CARTESIAN_POINT('Origin',(0.,0.,0.));
#1620=CARTESIAN_POINT('',(33.,0.,-9.46212805078258E-15));
#1621=CARTESIAN_POINT('',(-33.,0.,4.7310640253913E-15));
#1622=CARTESIAN_POINT('',(-17.,0.,-24.2));
#1623=CARTESIAN_POINT('',(17.,0.,-24.2));
#1624=CARTESIAN_POINT('Origin',(32.,6.,-24.2));
#1625=CARTESIAN_POINT('',(32.,3.,21.2));
#1626=CARTESIAN_POINT('',(32.,3.,-21.2));
#1627=CARTESIAN_POINT('',(32.,3.,-24.2));
#1628=CARTESIAN_POINT('',(32.,6.,21.2));
#1629=CARTESIAN_POINT('',(32.,6.,-21.2));
#1630=CARTESIAN_POINT('Origin',(-35.,6.,-21.2));
#1631=CARTESIAN_POINT('',(-32.,3.,-21.2));
#1632=CARTESIAN_POINT('',(-35.,3.,-21.2));
#1633=CARTESIAN_POINT('',(-32.,6.,-21.2));
#1634=CARTESIAN_POINT('Origin',(-32.,6.,-24.2));
#1635=CARTESIAN_POINT('',(-32.,3.,21.2));
#1636=CARTESIAN_POINT('',(-32.,3.,-24.2));
#1637=CARTESIAN_POINT('',(-32.,6.,21.2));
#1638=CARTESIAN_POINT('Origin',(0.,3.,0.));
#1639=CARTESIAN_POINT('',(-35.,3.,21.2));
#1640=CARTESIAN_POINT('',(-23.7,3.,-13.775625954625));
#1641=CARTESIAN_POINT('',(-21.1,3.,-13.775625954625));
#1642=CARTESIAN_POINT('',(-21.1,3.,-13.775625954625));
#1643=CARTESIAN_POINT('',(-19.6,3.,-12.275625954625));
#1644=CARTESIAN_POINT('Origin',(-21.1,3.,-12.275625954625));
#1645=CARTESIAN_POINT('',(-19.6,3.,-7.07562595462501));
#1646=CARTESIAN_POINT('',(-19.6,3.,-7.07562595462501));
#1647=CARTESIAN_POINT('',(-21.1,3.,-5.57562595462501));
#1648=CARTESIAN_POINT('Origin',(-21.1,3.,-7.07562595462501));
#1649=CARTESIAN_POINT('',(-23.7,3.,-5.57562595462501));
#1650=CARTESIAN_POINT('',(-23.7,3.,-5.57562595462501));
#1651=CARTESIAN_POINT('',(-25.2,3.,-7.07562595462501));
#1652=CARTESIAN_POINT('Origin',(-23.7,3.,-7.07562595462501));
#1653=CARTESIAN_POINT('',(-25.2,3.,-12.275625954625));
#1654=CARTESIAN_POINT('',(-25.2,3.,3.61281252848062E-15));
#1655=CARTESIAN_POINT('Origin',(-23.7,3.,-12.275625954625));
#1656=CARTESIAN_POINT('Origin',(-34.,1.,21.2));
#1657=CARTESIAN_POINT('',(-34.,1.,21.7));
#1658=CARTESIAN_POINT('',(-34.,1.,21.2));
#1659=CARTESIAN_POINT('',(-34.,6.,21.7));
#1660=CARTESIAN_POINT('Origin',(-34.,1.,21.2));
#1661=CARTESIAN_POINT('',(-33.5,1.,21.2));
#1662=CARTESIAN_POINT('',(-33.5,1.,21.2));
#1663=CARTESIAN_POINT('',(33.5,1.,21.2));
#1664=CARTESIAN_POINT('',(-34.,1.,21.2));
#1665=CARTESIAN_POINT('',(33.5,6.,21.2));
#1666=CARTESIAN_POINT('Origin',(34.,1.,21.2));
#1667=CARTESIAN_POINT('',(34.,1.,21.7));
#1668=CARTESIAN_POINT('',(34.,1.,21.7));
#1669=CARTESIAN_POINT('',(34.,1.,21.2));
#1670=CARTESIAN_POINT('Origin',(0.,1.,0.));
#1671=CARTESIAN_POINT('Origin',(-33.5,1.,21.7));
#1672=CARTESIAN_POINT('Origin',(33.5,1.,21.7));
#1673=CARTESIAN_POINT('Origin',(-33.5,1.,21.7));
#1674=CARTESIAN_POINT('Origin',(33.5,1.,21.7));
#1675=CARTESIAN_POINT('Origin',(17.,0.,-24.2));
#1676=CARTESIAN_POINT('',(22.,0.,-24.2));
#1677=CARTESIAN_POINT('',(17.,0.,-24.2));
#1678=CARTESIAN_POINT('Origin',(17.,6.93966667140737,-25.3198670748751));
#1679=CARTESIAN_POINT('Origin',(22.,6.93966667140737,-25.3198670748751));
#1680=CARTESIAN_POINT('Origin',(22.,6.93966667140737,-25.3198670748751));
#1681=CARTESIAN_POINT('Origin',(-17.,6.93966667140737,-25.3198670748751));
#1682=CARTESIAN_POINT('',(-17.,0.,-24.2));
#1683=CARTESIAN_POINT('Origin',(-22.,6.93966667140737,-25.3198670748751));
#1684=CARTESIAN_POINT('',(-22.,0.,-24.2));
#1685=CARTESIAN_POINT('Origin',(-22.,6.93966667140737,-25.3198670748751));
#1686=CARTESIAN_POINT('Origin',(-17.,0.,-24.2));
#1687=CARTESIAN_POINT('Origin',(35.,6.93966667140737,-25.3198670748751));
#1688=CARTESIAN_POINT('Origin',(-35.,6.93966667140737,-25.3198670748751));
#1689=CARTESIAN_POINT('Origin',(-20.6,3.,-12.775625954625));
#1690=CARTESIAN_POINT('',(-21.1,13.9,-12.775625954625));
#1691=CARTESIAN_POINT('',(-21.1,4.,-12.775625954625));
#1692=CARTESIAN_POINT('',(-21.1,3.,-12.775625954625));
#1693=CARTESIAN_POINT('',(-23.7,4.,-12.775625954625));
#1694=CARTESIAN_POINT('',(-23.7,4.,-12.775625954625));
#1695=CARTESIAN_POINT('',(-23.7,13.9,-12.775625954625));
#1696=CARTESIAN_POINT('',(-23.7,13.9,-12.775625954625));
#1697=CARTESIAN_POINT('',(-20.6,13.9,-12.775625954625));
#1698=CARTESIAN_POINT('Origin',(-20.6,13.9,-9.67562595462501));
#1699=CARTESIAN_POINT('',(-23.7,13.9,-6.57562595462501));
#1700=CARTESIAN_POINT('Origin',(-23.7,13.9,-9.67562595462501));
#1701=CARTESIAN_POINT('',(-21.1,13.9,-6.57562595462501));
#1702=CARTESIAN_POINT('',(-20.6,13.9,-6.57562595462501));
#1703=CARTESIAN_POINT('Origin',(-21.1,13.9,-9.67562595462501));
#1704=CARTESIAN_POINT('Origin',(-20.6,13.9,-6.57562595462502));
#1705=CARTESIAN_POINT('',(-23.7,4.,-6.57562595462501));
#1706=CARTESIAN_POINT('',(-23.7,3.,-6.57562595462501));
#1707=CARTESIAN_POINT('',(-21.1,4.,-6.57562595462501));
#1708=CARTESIAN_POINT('',(-21.1,4.,-6.57562595462501));
#1709=CARTESIAN_POINT('',(-21.1,13.9,-6.57562595462502));
#1710=CARTESIAN_POINT('Origin',(-20.6,13.9,-9.67562595462501));
#1711=CARTESIAN_POINT('',(-20.6,13.9,-7.07562595462501));
#1712=CARTESIAN_POINT('',(-20.6,4.,-7.07562595462501));
#1713=CARTESIAN_POINT('',(-20.6,13.9,-7.07562595462502));
#1714=CARTESIAN_POINT('',(-20.6,4.,-12.275625954625));
#1715=CARTESIAN_POINT('',(-20.6,4.,-12.275625954625));
#1716=CARTESIAN_POINT('',(-20.6,13.9,-12.275625954625));
#1717=CARTESIAN_POINT('',(-20.6,13.9,-12.275625954625));
#1718=CARTESIAN_POINT('Origin',(-20.6,13.9,-9.67562595462501));
#1719=CARTESIAN_POINT('',(-20.6,16.15,-8.37658784894836));
#1720=CARTESIAN_POINT('',(-20.6,13.9,-7.0775497432717));
#1721=CARTESIAN_POINT('',(-20.6,16.15,-8.37658784894836));
#1722=CARTESIAN_POINT('',(-20.6,16.15,-10.9746640603017));
#1723=CARTESIAN_POINT('',(-20.6,16.15,-10.9746640603017));
#1724=CARTESIAN_POINT('',(-20.6,13.9,-12.2737021659783));
#1725=CARTESIAN_POINT('',(-20.6,13.9,-12.2737021659783));
#1726=CARTESIAN_POINT('',(-20.6,11.65,-10.9746640603017));
#1727=CARTESIAN_POINT('',(-20.6,11.65,-10.9746640603017));
#1728=CARTESIAN_POINT('',(-20.6,11.65,-8.37658784894836));
#1729=CARTESIAN_POINT('',(-20.6,11.65,-8.37658784894836));
#1730=CARTESIAN_POINT('',(-20.6,13.9,-7.0775497432717));
#1731=CARTESIAN_POINT('Origin',(-24.2,13.9,-9.67562595462501));
#1732=CARTESIAN_POINT('',(-24.2,13.9,-12.275625954625));
#1733=CARTESIAN_POINT('',(-24.2,4.,-12.275625954625));
#1734=CARTESIAN_POINT('',(-24.2,3.,-12.275625954625));
#1735=CARTESIAN_POINT('',(-24.2,4.,-7.07562595462501));
#1736=CARTESIAN_POINT('',(-24.2,4.,-9.67562595462501));
#1737=CARTESIAN_POINT('',(-24.2,13.9,-7.07562595462501));
#1738=CARTESIAN_POINT('',(-24.2,13.9,-7.07562595462502));
#1739=CARTESIAN_POINT('Origin',(-24.2,13.9,-9.67562595462501));
#1740=CARTESIAN_POINT('Origin',(33.,2.,-24.2));
#1741=CARTESIAN_POINT('Origin',(-33.,2.,-24.2));
#1742=CARTESIAN_POINT('Origin',(-23.7,13.9,-12.275625954625));
#1743=CARTESIAN_POINT('Origin',(-23.7,4.,-12.275625954625));
#1744=CARTESIAN_POINT('Origin',(-23.7,13.9,-12.275625954625));
#1745=CARTESIAN_POINT('Origin',(-23.7,13.9,-9.67562595462501));
#1746=CARTESIAN_POINT('Origin',(-23.7,13.9,-7.07562595462501));
#1747=CARTESIAN_POINT('Origin',(-23.7,13.9,-7.07562595462502));
#1748=CARTESIAN_POINT('Origin',(-23.7,4.,-7.07562595462501));
#1749=CARTESIAN_POINT('Origin',(-21.1,3.,-12.275625954625));
#1750=CARTESIAN_POINT('Origin',(-21.1,4.,-12.275625954625));
#1751=CARTESIAN_POINT('Origin',(-21.1,13.9,-12.275625954625));
#1752=CARTESIAN_POINT('Origin',(-21.1,13.9,-9.67562595462501));
#1753=CARTESIAN_POINT('Origin',(-21.1,13.9,-7.07562595462501));
#1754=CARTESIAN_POINT('Origin',(-21.1,13.9,-7.07562595462502));
#1755=CARTESIAN_POINT('Origin',(-21.1,4.,-7.07562595462501));
#1756=CARTESIAN_POINT('Origin',(-23.7,4.,-7.07562595462501));
#1757=CARTESIAN_POINT('Origin',(-23.7,4.,-5.57562595462501));
#1758=CARTESIAN_POINT('Origin',(-25.2,4.,-7.07562595462501));
#1759=CARTESIAN_POINT('Origin',(-25.2,4.,-9.67562595462501));
#1760=CARTESIAN_POINT('Origin',(-25.2,4.,-12.275625954625));
#1761=CARTESIAN_POINT('Origin',(-7.9935282948377E-16,4.,-5.57562595462502));
#1762=CARTESIAN_POINT('Origin',(-21.1,4.,-5.57562595462501));
#1763=CARTESIAN_POINT('Origin',(-23.7,4.,-12.275625954625));
#1764=CARTESIAN_POINT('Origin',(-23.7,4.,-13.775625954625));
#1765=CARTESIAN_POINT('Origin',(-21.1,4.,-7.07562595462501));
#1766=CARTESIAN_POINT('Origin',(-19.6,4.,-7.07562595462501));
#1767=CARTESIAN_POINT('Origin',(-20.6,4.,-13.775625954625));
#1768=CARTESIAN_POINT('Origin',(-21.1,4.,-13.775625954625));
#1769=CARTESIAN_POINT('Origin',(-19.6,4.,2.80996529992938E-15));
#1770=CARTESIAN_POINT('Origin',(-19.6,4.,-12.275625954625));
#1771=CARTESIAN_POINT('Origin',(-21.1,4.,-12.275625954625));
#1772=CARTESIAN_POINT('Origin',(-22.6,0.,2.86731153054018E-16));
#1773=CARTESIAN_POINT('',(-22.6,16.15,-8.37658784894836));
#1774=CARTESIAN_POINT('',(-22.6,13.9,-7.0775497432717));
#1775=CARTESIAN_POINT('',(-22.6,16.15,-8.37658784894836));
#1776=CARTESIAN_POINT('',(-22.6,11.65,-8.37658784894836));
#1777=CARTESIAN_POINT('',(-22.6,13.9,-7.0775497432717));
#1778=CARTESIAN_POINT('',(-22.6,11.65,-10.9746640603017));
#1779=CARTESIAN_POINT('',(-22.6,11.65,-8.37658784894836));
#1780=CARTESIAN_POINT('',(-22.6,13.9,-12.2737021659783));
#1781=CARTESIAN_POINT('',(-22.6,11.65,-10.9746640603017));
#1782=CARTESIAN_POINT('',(-22.6,16.15,-10.9746640603017));
#1783=CARTESIAN_POINT('',(-22.6,13.9,-12.2737021659783));
#1784=CARTESIAN_POINT('',(-22.6,16.15,-10.9746640603017));
#1785=CARTESIAN_POINT('Origin',(-22.6,16.15,-8.37658784894836));
#1786=CARTESIAN_POINT('',(-22.6,13.9,-7.0775497432717));
#1787=CARTESIAN_POINT('',(-22.6,16.15,-8.37658784894836));
#1788=CARTESIAN_POINT('Origin',(-22.6,16.15,-10.9746640603017));
#1789=CARTESIAN_POINT('',(-22.6,16.15,-10.9746640603017));
#1790=CARTESIAN_POINT('Origin',(-22.6,13.9,-12.2737021659783));
#1791=CARTESIAN_POINT('',(-22.6,13.9,-12.2737021659783));
#1792=CARTESIAN_POINT('Origin',(-22.6,11.65,-10.9746640603017));
#1793=CARTESIAN_POINT('',(-22.6,11.65,-10.9746640603017));
#1794=CARTESIAN_POINT('Origin',(-22.6,11.65,-8.37658784894836));
#1795=CARTESIAN_POINT('',(-22.6,11.65,-8.37658784894836));
#1796=CARTESIAN_POINT('Origin',(-22.6,13.9,-7.0775497432717));
#1797=UNCERTAINTY_MEASURE_WITH_UNIT(LENGTH_MEASURE(0.01),#1801,
'DISTANCE_ACCURACY_VALUE',
'Maximum model space distance between geometric entities at asserted c
onnectivities');
#1798=UNCERTAINTY_MEASURE_WITH_UNIT(LENGTH_MEASURE(0.01),#1801,
'DISTANCE_ACCURACY_VALUE',
'Maximum model space distance between geometric entities at asserted c
onnectivities');
#1799=(
GEOMETRIC_REPRESENTATION_CONTEXT(3)
GLOBAL_UNCERTAINTY_ASSIGNED_CONTEXT((#1797))
GLOBAL_UNIT_ASSIGNED_CONTEXT((#1801,#1803,#1804))
REPRESENTATION_CONTEXT('','3D')
);
#1800=(
GEOMETRIC_REPRESENTATION_CONTEXT(3)
GLOBAL_UNCERTAINTY_ASSIGNED_CONTEXT((#1798))
GLOBAL_UNIT_ASSIGNED_CONTEXT((#1801,#1803,#1804))
REPRESENTATION_CONTEXT('','3D')
);
#1801=(
LENGTH_UNIT()
NAMED_UNIT(*)
SI_UNIT(.MILLI.,.METRE.)
);
#1802=(
LENGTH_UNIT()
NAMED_UNIT(*)
SI_UNIT($,.METRE.)
);
#1803=(
NAMED_UNIT(*)
PLANE_ANGLE_UNIT()
SI_UNIT($,.RADIAN.)
);
#1804=(
NAMED_UNIT(*)
SI_UNIT($,.STERADIAN.)
SOLID_ANGLE_UNIT()
);
#1805=SHAPE_DEFINITION_REPRESENTATION(#1806,#1807);
#1806=PRODUCT_DEFINITION_SHAPE('',$,#1809);
#1807=SHAPE_REPRESENTATION('',(#1073),#1799);
#1808=PRODUCT_DEFINITION_CONTEXT('part definition',#1813,'design');
#1809=PRODUCT_DEFINITION('\X2\76D65B50\X0\','(\X2\672A4FDD5B58\X0\)',#1810,
#1808);
#1810=PRODUCT_DEFINITION_FORMATION('',$,#1815);
#1811=PRODUCT_RELATED_PRODUCT_CATEGORY('(\X2\672A4FDD5B58\X0\)',
'(\X2\672A4FDD5B58\X0\)',(#1815));
#1812=APPLICATION_PROTOCOL_DEFINITION('international standard',
'automotive_design',2009,#1813);
#1813=APPLICATION_CONTEXT(
'Core Data for Automotive Mechanical Design Process');
#1814=PRODUCT_CONTEXT('part definition',#1813,'mechanical');
#1815=PRODUCT('\X2\76D65B50\X0\','(\X2\672A4FDD5B58\X0\)','STEP AP203',
(#1814));
#1816=PRESENTATION_STYLE_ASSIGNMENT((#1817));
#1817=SURFACE_STYLE_USAGE(.BOTH.,#1818);
#1818=SURFACE_SIDE_STYLE('',(#1819));
#1819=SURFACE_STYLE_FILL_AREA(#1820);
#1820=FILL_AREA_STYLE('\X2\94A2\X0\ - \X2\7F0E5149\X0\',(#1821));
#1821=FILL_AREA_STYLE_COLOUR('\X2\94A2\X0\ - \X2\7F0E5149\X0\',#1822);
#1822=COLOUR_RGB('\X2\94A2\X0\ - \X2\7F0E5149\X0\',0.627450980392157,0.627450980392157,
0.627450980392157);
ENDSEC;
END-ISO-10303-21;
